<?xml version="1.0" standalone="no"?>
<!DOCTYPE svg PUBLIC "-//W3C//DTD SVG 1.1//EN" "http://www.w3.org/Graphics/SVG/1.1/DTD/svg11.dtd" >
<!--
2013-9-30: Created.
-->
<svg>
<metadata>
Created by iconfont
</metadata>
<defs>

<font id="iconfont" horiz-adv-x="1024" >
  <font-face
    font-family="iconfont"
    font-weight="500"
    font-stretch="normal"
    units-per-em="1024"
    ascent="896"
    descent="-128"
  />
    <missing-glyph />
    
    <glyph glyph-name="x" unicode="x" horiz-adv-x="1001"
d="M281 543q-27 -1 -53 -1h-83q-18 0 -36.5 -6t-32.5 -18.5t-23 -32t-9 -45.5v-76h912v41q0 16 -0.5 30t-0.5 18q0 13 -5 29t-17 29.5t-31.5 22.5t-49.5 9h-133v-97h-438v97zM955 310v-52q0 -23 0.5 -52t0.5 -58t-10.5 -47.5t-26 -30t-33 -16t-31.5 -4.5q-14 -1 -29.5 -0.5
t-29.5 0.5h-32l-45 128h-439l-44 -128h-29h-34q-20 0 -45 1q-25 0 -41 9.5t-25.5 23t-13.5 29.5t-4 30v167h911zM163 247q-12 0 -21 -8.5t-9 -21.5t9 -21.5t21 -8.5q13 0 22 8.5t9 21.5t-9 21.5t-22 8.5zM316 123q-8 -26 -14 -48q-5 -19 -10.5 -37t-7.5 -25t-3 -15t1 -14.5
t9.5 -10.5t21.5 -4h37h67h81h80h64h36q23 0 34 12t2 38q-5 13 -9.5 30.5t-9.5 34.5q-5 19 -11 39h-368zM336 498v228q0 11 2.5 23t10 21.5t20.5 15.5t34 6h188q31 0 51.5 -14.5t20.5 -52.5v-227h-327z" />
    

    
    <glyph glyph-name="home" unicode="&#58882;" d="M64.303027 358.694797 512.000512 706.16251 959.69595 358.694797 959.69595 216.931073 512.000512 564.508279 64.303027 216.931073ZM847.771835 229.611883 847.771835-106.16251 623.923604-106.16251 623.923604 117.686744 400.075373 117.686744 400.075373-106.16251 176.227142-106.16251 176.227142 229.611883 512.000512 481.440375Z"  horiz-adv-x="1024" />

    
    <glyph glyph-name="google" unicode="&#59123;" d="M706.857143 46.857143q0 14.285714-4 28t-8.285714 24-15.428571 23.714286-16.857143 20-22 19.714286-20.857143 16.571429-23.714286 17.142857-20.857143 14.857143q-9.142857 1.142857-28 1.142857-30.285714 0-59.714286-4t-61.142857-14.285714-55.428571-26.285714-39.142857-42.571429-15.428571-60.285714q0-32 13.428571-58.285714t34.857143-43.142857 49.714286-28.571429 57.142857-16.571429 58-4.857143q33.142857 0 63.714286 7.428571t56.571429 22.285714 41.714286 41.714286 15.714286 62.285714zm-66.857143 490.285714q0 33.714286-9.714286 71.714286t-27.428571 73.714286-48 59.142857-66.857143 23.428571q-24 0-47.142857-11.142857t-38-30q-26.285714-33.714286-26.285714-91.428571 0-26.285714 5.714286-55.714286t18-58.857143 29.714286-52.857143 42.857143-38.285714 55.142857-14.857143q21.142857 0 44.285714 9.428571t37.428571 24.857143q30.285714 32 30.285714 90.857143zm-64 274.857143l238.285714 0-78.285714-50.285714-75.428571 0q42.857143-36 64.571429-76t21.714286-91.428571q0-41.142857-14-74t-34-53.142857-39.714286-37.142857-33.714286-35.142857-14-37.714286q0-20.571429 18.285714-40.285714t44-38.857143 51.714286-42 44.285714-59.428571 18.285714-81.142857q0-52-28-98.857143-40.571429-69.714286-119.714286-102.571429t-170.571429-32.857143q-75.428571 0-140.857143 23.714286t-98.571429 78.571429q-20.571429 33.714286-20.571429 74.857143 0 46.285714 25.428571 85.714286t67.714286 65.714286q74.857143 46.857143 230.857143 57.142857-18.285714 23.428571-27.142857 42t-8.857143 42q0 22.857143 12 48.571429-26.285714-2.285714-38.857143-2.285714-84.571429 0-142.571429 55.142857t-58 139.714286q0 46.857143 20.571429 90.857143t56.571429 74.857143q43.428571 37.714286 104 56t124.571429 18.285714z"  horiz-adv-x="1024" />

    
    <glyph glyph-name="search" unicode="&#58900;" d="M962.169281-58.493837 746.481917 157.19148c49.937342 61.257156 79.94068 139.357931 79.94068 224.524636 0 196.394972-159.186536 355.598904-355.598904 355.598904-196.377576 0-355.598904-159.203932-355.598904-355.598904 0-196.36018 159.221328-355.6163 355.598904-355.6163 85.600587 0 164.116825 30.281677 225.479381 80.704067l215.547171-215.581963L962.169281-58.493837zM470.824717 97.25439c-157.136853 0-284.479123 127.341247-284.479123 284.461727s127.34227 284.496519 284.479123 284.496519c157.102061 0 284.479123-127.377062 284.479123-284.496519S627.926778 97.25439 470.824717 97.25439z"  horiz-adv-x="1024" />

    
    <glyph glyph-name="quxiao" unicode="&#58964;" d="M512 355.698257 66.413942 801.284315 10.715685 745.586058 456.301743 300 10.715685-145.586058 66.413942-201.284315 512 244.301743 957.586058-201.284315 1013.284315-145.586058 567.698257 300 1013.284315 745.586058 957.586058 801.284315 512 355.698257Z"  horiz-adv-x="1024" />

    
    <glyph glyph-name="zs-rank" unicode="&#58891;" d="M864.96 242.080c25.696 51.52 40.544 109.248 40.544 170.528 0 213.952-176.064 387.392-393.216 387.392-217.152 0-393.216-173.44-393.216-387.424 0-61.28 14.848-119.008 40.544-170.528l-159.616-272.352c0 0 101.216-20.288 203.904-41.44 68.48-76.192 136.64-152.256 136.64-152.256l146.752 250.432c8.32-0.512 16.544-1.248 24.992-1.248 8.448 0 16.704 0.736 24.992 1.248l146.752-250.432c0 0 68.16 76.032 136.608 152.256 102.688 21.152 203.936 41.44 203.936 41.44l-159.616 272.384zM332.928-107.84c0 0-49.152 46.592-95.36 91.52-65.536 18.624-131.68 37.632-131.68 37.632l92.8 158.272c53.504-69.792 130.272-121.024 219.104-142.656l-84.864-144.768zM512.288 95.744c-176.576 0-319.68 143.424-319.68 320.352 0 176.896 143.136 320.32 319.68 320.32 176.544 0 319.68-143.424 319.68-320.32-0-176.928-143.136-320.352-319.68-320.352zM787.008-16.32c-46.208-44.928-95.36-91.52-95.36-91.52l-84.832 144.768c88.832 21.632 165.6 72.864 219.104 142.656l92.768-158.304c-0.032 0.032-66.144-18.944-131.68-37.6zM512.288 640c-123.712 0-224-100.288-224-224s100.288-224 224-224c123.712 0 224 100.288 224 224s-100.288 224-224 224zM512.288 256c-88.352 0-160 71.648-160 160s71.648 160 160 160c88.352 0 160-71.648 160-160 0-88.352-71.648-160-160-160z"  horiz-adv-x="1057" />

    
    <glyph glyph-name="iconfontyouhuiquan" unicode="&#59263;" d="M1005.836 356.433c-9.41 0-17.021 7.612-17.021 17.021v67.948c0 9.41 7.612 17.021 17.021 17.021 9.41 0 17.021-7.612 17.021-17.021v-67.948c0-9.41-7.612-17.021-17.021-17.021v0zM18.026 593.629c-9.41 0-17.021 7.612-17.021 17.021v52.172c0 9.41 7.612 17.021 17.021 17.021h987.949c9.41 0 17.021-7.612 17.021-17.021v-49.957c0-9.41-7.612-17.021-17.021-17.021-9.41 0-17.021 7.612-17.021 17.021v32.937h-953.905v-35.151c0-9.41-7.612-17.021-17.021-17.021v0zM1005.836-106.474h-987.809c-9.41 0-17.021 7.612-17.021 17.021s7.612 17.021 17.021 17.021h970.927v35.842c0 9.41 7.612 17.021 17.021 17.021 9.41 0 17.021-7.612 17.021-17.021v-52.865c-0.139-9.41-7.749-17.021-17.159-17.021v0zM1005.836 429.778c-1.246 0-2.353 0.139-3.598 0.415-22.142 4.705-42.208 17.021-56.462 34.596-14.53 17.852-22.558 40.271-22.558 63.381 0 23.11 8.027 45.53 22.558 63.381 14.391 17.575 34.459 29.891 56.462 34.596 9.134 1.938 18.267-3.875 20.205-13.008 1.938-9.134-3.875-18.267-13.008-20.205-30.307-6.505-52.31-33.767-52.31-64.766 0-30.998 22.003-58.261 52.31-64.766 9.134-1.938 15.085-10.933 13.008-20.205-1.661-7.888-8.719-13.424-16.607-13.424v0zM1005.836 188.016c-1.246 0-2.353 0.139-3.598 0.415-22.142 4.705-42.208 17.021-56.462 34.596-14.53 17.852-22.558 40.271-22.558 63.381 0 23.11 8.027 45.53 22.558 63.381 14.391 17.575 34.459 29.891 56.462 34.596 9.134 1.938 18.267-3.875 20.205-13.008 1.938-9.134-3.875-18.267-13.008-20.205-30.307-6.505-52.31-33.767-52.31-64.766 0-30.998 22.003-58.261 52.31-64.766 9.134-1.938 15.085-10.933 13.008-20.205-1.661-7.888-8.719-13.424-16.607-13.424v0zM1005.836-53.747c-1.246 0-2.353 0.139-3.598 0.415-22.142 4.705-42.208 17.021-56.462 34.596-14.53 17.852-22.558 40.41-22.558 63.381 0 23.11 8.027 45.53 22.558 63.381 14.391 17.575 34.459 29.891 56.462 34.596 9.134 1.938 18.267-3.875 20.205-13.008 1.938-9.134-3.875-18.267-13.008-20.205-30.307-6.505-52.31-33.767-52.31-64.766 0-30.998 22.003-58.261 52.31-64.766 9.134-1.938 15.085-10.933 13.008-20.205-1.661-7.888-8.719-13.424-16.607-13.424v0zM1005.836 109.826c-9.41 0-17.021 7.612-17.021 17.021v77.083c0 9.41 7.612 17.021 17.021 17.021 9.41 0 17.021-7.612 17.021-17.021v-77.083c0-9.41-7.612-17.021-17.021-17.021v0zM18.164-106.474c-9.41 0-17.021 7.612-17.021 17.021v47.605c0 9.41 7.612 17.021 17.021 17.021 9.41 0 17.021-7.612 17.021-17.021v-47.605c0-9.41-7.612-17.021-17.021-17.021v0zM485.637 66.511c3.46 20.343 4.705 38.887 4.705 65.181v57.015h-85.523c-26.156 0-40.686-1.107-60.475-4.705v43.591c19.79-3.46 34.32-4.705 60.475-4.705h85.523v27.954l-22.834 34.32h-62.828c-26.156 0-40.686-1.107-60.475-4.705v43.591c19.79-3.46 34.32-4.705 60.475-4.705h40.686l-90.091 138.388c-16.883 26.156-26.156 39.579-34.874 50.512h62.274c4.705-13.424 9.826-24.356 28.508-53.418l101.715-163.989 101.161 163.989c16.883 27.262 23.803 40.133 27.954 53.418h62.828c-8.164-9.826-20.343-26.709-35.981-50.512l-89.536-138.388h40.686c26.156 0 41.239 1.107 61.029 4.705v-43.591c-19.79 3.46-35.427 4.705-61.029 4.705h-62.274l-23.249-34.874v-27.402h85.523c25.601 0 40.686 1.107 60.475 4.705v-43.591c-19.79 3.46-35.427 4.705-60.475 4.705h-85.523v-57.015c0-29.061 1.107-44.146 4.705-65.181h-53.556zM18.58 353.526c-9.41 0-17.021 7.612-17.021 17.021v70.301c0 9.41 7.612 17.021 17.021 17.021 9.41 0 17.021-7.612 17.021-17.021v-70.301c0-9.41-7.612-17.021-17.021-17.021v0zM18.58 429.086c-7.888 0-14.946 5.397-16.607 13.424-1.938 9.134 3.875 18.267 13.008 20.205 30.307 6.505 52.31 33.767 52.31 64.766 0 30.998-22.003 58.261-52.31 64.766-9.134 1.938-15.085 10.933-13.008 20.205 1.938 9.134 10.933 15.085 20.205 13.008 22.142-4.705 42.208-17.021 56.601-34.596 14.53-17.852 22.558-40.271 22.558-63.381 0-23.11-8.027-45.53-22.558-63.381-14.391-17.575-34.459-29.891-56.601-34.596-1.246-0.276-2.353-0.415-3.598-0.415v0zM18.58 187.323c-7.888 0-14.946 5.397-16.607 13.424-1.938 9.134 3.875 18.267 13.008 20.205 30.307 6.505 52.31 33.767 52.31 64.766 0 30.998-22.003 58.261-52.31 64.766-9.134 1.938-15.085 10.933-13.008 20.205 1.938 9.134 10.933 15.085 20.205 13.008 22.142-4.705 42.208-17.021 56.601-34.596 14.53-17.852 22.558-40.271 22.558-63.381 0-23.11-8.027-45.53-22.558-63.381-14.391-17.575-34.459-29.891-56.601-34.596-1.246-0.276-2.353-0.415-3.598-0.415v0zM18.58-54.441c-7.888 0-14.946 5.397-16.607 13.424-1.938 9.134 3.875 18.267 13.008 20.205 30.307 6.505 52.31 33.767 52.31 64.766 0 30.998-22.003 58.261-52.31 64.766-9.134 1.938-15.085 10.933-13.008 20.205 1.938 9.134 10.933 15.085 20.205 13.008 22.142-4.705 42.208-17.021 56.462-34.596 14.53-17.852 22.558-40.271 22.558-63.381 0-23.11-8.027-45.53-22.558-63.381-14.391-17.575-34.459-29.891-56.601-34.596-1.107-0.276-2.214-0.415-3.46-0.415v0zM18.58 109.135c-9.41 0-17.021 7.612-17.021 17.021v77.083c0 9.41 7.612 17.021 17.021 17.021 9.41 0 17.021-7.612 17.021-17.021v-77.083c0-9.41-7.612-17.021-17.021-17.021v0zM18.58 109.135z"  horiz-adv-x="1024" />

    
    <glyph glyph-name="pinterest" unicode="&#59390;" d="M512 896C229.216 896 0 666.784 0 384s229.216-512 512-512c282.784 0 512 229.216 512 512S794.784 896 512 896zM561.632 211.872c-46.528 3.616-66.048 26.656-102.496 48.8C439.072 155.52 414.592 54.688 342.016 2.016c-22.4 158.976 32.896 278.368 58.56 405.12-43.776 73.696 5.28 222.048 97.632 185.472 113.632-44.96-98.4-274.016 43.936-302.624 148.608-29.856 209.28 257.856 117.152 351.424-133.152 135.104-387.584 3.072-356.32-190.368 7.616-47.296 56.48-61.632 19.52-126.912-85.216 18.88-110.656 86.112-107.392 175.712 5.28 146.688 131.776 249.376 258.688 263.552 160.48 17.952 311.104-58.912 331.904-209.888C829.12 383.168 733.248 198.624 561.632 211.872z"  horiz-adv-x="1024" />

    
    <glyph glyph-name="search1" unicode="&#58899;" d="M937.024 70.528l-176.512 176.576c-2.624 2.624-5.568 4.608-8.32 6.784 38.208 58.688 60.544 128.512 60.544 203.776 0 206.784-167.552 374.4-374.4 374.4C231.616 832.064 64 664.448 64 457.664c0-206.784 167.68-374.4 374.4-374.4 75.264 0 145.216 22.4 203.904 60.608 2.176-2.816 4.096-5.696 6.72-8.256l176.512-176.576C840.96-56.32 861.056-64 881.216-64c20.16 0 40.32 7.68 55.744 23.04C967.68-10.176 967.68 39.744 937.024 70.528M438.336 201.536c-141.184 0-256.128 114.944-256.128 256.128 0 141.184 114.944 256.128 256.128 256.128 141.184 0 256.128-114.944 256.128-256.128C694.464 316.48 579.52 201.536 438.336 201.536"  horiz-adv-x="1024" />

    
    <glyph glyph-name="hand-copy" unicode="&#58902;" d="M343.254 11.179h492.21c31.056 0 56.228 25.122 56.228 56.254v70.348c23.278 0 42.183 18.828 42.183 42.158v337.494c0 31.029-25.198 56.202-56.254 56.202h-220.51c1.638 50.804-1.202 150.93-43.181 210.1-37.187 50.679-53.617 56.729-77.383 65.565-29.075 10.807-71.423-5.499-71.423-36.53 0 0 14.53-108.030-24.303-174.030-16.909-28.727-37.553-50.113-55.511-65.105h-238.929c-31.056 0-56.254-25.173-56.254-56.202v-450.002c0-31.132 25.198-56.254 56.254-56.254h196.875zM343.254 520.809v-456.753h-151.491c-26.937 0-48.733 20.081-48.733 45.023v366.73c0 24.841 21.82 45.022 48.733 45.022l151.491-0.023zM726.333 404.954c0-15.529 12.586-28.139 28.139-28.139h126.551v-70.348h-126.55c-15.529 0-28.139-12.586-28.139-28.139 0-15.476 12.586-28.139 28.139-28.139h126.551v-56.254h-126.551c-15.529 0-28.139-12.535-28.139-28.036 0-15.529 12.586-28.139 28.139-28.139h84.394v-28.7c0-24.941-25.222-45.023-52.16-45.023h-382.979v456.928c53.123 34.985 68.253 61.984 74.903 72.012 41.313 62.444 42.209 167.89 42.209 167.89 0 31.081 7.405 42.783 25.478 20.286 0 0 47.275-51.553 47.275-204.115-0.486-10.54-0.051-28.727 5.065-38.679 6.625-12.74 13.481-17.549 44.537-17.549h189.044c26.937 0 48.759-20.183 48.759-45.023v-42.743h-126.553c-15.529 0.026-28.114-12.636-28.114-28.089v0l-0.001-0.001zM216.678 179.964c0-15.578 12.611-28.139 28.139-28.139s28.139 12.535 28.139 28.139c0 15.529-12.586 28.089-28.139 28.089-15.502-0.025-28.139-12.56-28.139-28.089z"  horiz-adv-x="1024" />

    
    <glyph glyph-name="dengji" unicode="&#58921;" d="M819.739896 342.557122c22.51069 45.163619 26.055422 94.005001 26.055422 147.724483 0 187.556677-144.793734 341.370855-335.046822 341.370855-190.259228 0-335.051939-153.788595-335.051939-341.370855 0-53.725622 3.544733-102.58747 26.055422-147.754159L74.54888 123.622808c0 0 87.035262-32.030507 177.007413-50.573839 59.995419-66.792219 108.715027-138.565892 108.715027-138.565892l118.865201 227.069599c7.28901-0.450255 17.881253 0 25.286919 0 7.401574 0 18.026562-0.450255 25.286919 0l126.433574-214.937281c0 0 53.82079 59.612703 113.790626 126.433574 89.971128 18.542308 177.007413 50.573839 177.007413 50.573839L819.739896 342.557122 819.739896 342.557122zM352.702947 22.47513c0 0-42.168402 54.16769-82.652442 93.556792-57.419757 16.32685-132.284839 32.876782-132.284839 32.876782l88.503706 151.720494c46.87868-61.185524 123.854842-118.955252 201.684442-137.91814L352.702947 22.47513zM504.423441 199.482543c-74.065879 0-283.646152 44.283576-290.798039 290.798039-4.497431 155.01247 136.116097 303.440987 290.798039 303.440987 154.677848 0 302.545594-148.366096 303.440987-303.440987C809.218262 255.811456 578.490344 199.482543 504.423441 199.482543zM656.143934 22.47513l-75.860758 139.077545c77.831646 18.962887 168.063717 77.892021 214.937281 139.077545l88.503706-151.720494c-0.025583 0.030699-74.865081-16.524348-132.284839-32.876782L656.143934 22.47513zM510.748497 691.389926c-108.394732 0-196.260919-87.917352-196.260919-196.367343 0-108.451014 87.866187-196.367343 196.260919-196.367343 108.389616 0 196.255803 87.915305 196.255803 196.367343C707.003276 603.472574 619.137089 691.389926 510.748497 691.389926L510.748497 691.389926zM517.067412 338.560088c-48.697095 0-156.248623 19.271926-164.364465 164.363442-4.325515 77.329203 86.952374 151.720494 164.364465 151.720494 77.407997 0 149.762909-86.938048 151.720494-164.363442C671.357428 388.659113 565.764508 338.560088 517.067412 338.560088z"  horiz-adv-x="1024" />

    
    <glyph glyph-name="date" unicode="&#58931;" d="M954.59221 667.95826l0-676.896584c0-18.052145-9.025561-36.103266-18.052145-45.12678s-27.074635-18.052145-45.12678-18.052145L142.31631-72.117249c-18.052145 0-36.100196 9.023514-45.12678 18.052145-9.025561 9.028631-18.052145 27.074635-18.052145 45.12678l0 676.896584c0 18.052145 9.025561 36.103266 18.052145 45.12678s27.074635 18.052145 45.12678 18.052145l72.201415 0 0 54.149271c0 27.074635 9.025561 45.12678 27.074635 63.177901s36.100196 27.074635 63.177901 27.074635l36.100196 0c27.074635 0 45.12678-9.023514 63.177901-27.074635 18.052145-18.052145 27.074635-36.103266 27.074635-63.177901l0-54.149271 207.580732 0 0 54.149271c0 27.074635 9.025561 45.12678 27.074635 63.177901 18.049075 18.052145 36.100196 27.074635 63.177901 27.074635l36.100196 0c27.074635 0 45.12678-9.023514 63.177901-27.074635s27.074635-36.103266 27.074635-63.177901l0-54.149271 72.201415 0c18.052145 0 36.100196-9.023514 45.12678-18.052145C981.664799 704.05641 954.59221 686.010405 954.59221 667.95826zM142.31631 379.153622l153.431461 0L295.747771 532.585083 142.31631 532.585083 142.31631 379.153622zM142.31631 171.567773l153.431461 0L295.747771 343.050356 142.31631 343.050356 142.31631 171.567773zM142.31631-17.960815l153.431461 0L295.747771 135.469624 142.31631 135.469624 142.31631-17.960815zM349.897042 631.861134 349.897042 785.291572c0 9.023514 0 9.023514-9.025561 9.023514l-9.025561 9.023514-36.100196 0c-9.025561 0-9.025561 0-9.025561-9.023514l-9.025561-9.023514 0-153.431461c0-9.023514 0-9.023514 9.025561-9.023514l9.025561-9.023514 36.100196 0c9.025561 0 9.025561 0 9.025561 9.023514C340.871481 631.861134 349.897042 631.861134 349.897042 631.861134zM331.847967 379.153622l171.479513 0L503.32748 532.585083 331.847967 532.585083 331.847967 379.153622zM331.847967 171.567773l171.479513 0L503.32748 343.050356 331.847967 343.050356 331.847967 171.567773zM331.847967-17.960815l171.479513 0L503.32748 135.469624 331.847967 135.469624 331.847967-17.960815zM530.403139 379.153622l171.479513 0L701.882652 532.585083 530.403139 532.585083 530.403139 379.153622zM530.403139 171.567773l171.479513 0L701.882652 343.050356 530.403139 343.050356 530.403139 171.567773zM530.403139-17.960815l171.479513 0L701.882652 135.469624 530.403139 135.469624 530.403139-17.960815zM756.034992 631.861134 756.034992 785.291572c0 9.023514 0 9.023514-9.025561 9.023514l-9.025561 9.023514-36.100196 0c-9.025561 0-9.025561 0-9.025561-9.023514l-9.025561-9.023514 0-153.431461c0-9.023514 0-9.023514 9.025561-9.023514s9.025561-9.023514 9.025561-9.023514l36.100196 0c9.025561 0 9.025561 0 9.025561 9.023514C756.034992 622.832504 756.034992 631.861134 756.034992 631.861134zM737.985918 379.153622l153.431461 0L891.417379 532.585083 737.985918 532.585083 737.985918 379.153622zM737.985918 171.567773l153.431461 0L891.417379 343.050356 737.985918 343.050356 737.985918 171.567773zM737.985918-17.960815l153.431461 0L891.417379 135.469624 737.985918 135.469624 737.985918-17.960815z"  horiz-adv-x="1024" />

    
    <glyph glyph-name="riqi" unicode="&#59036;" d="M853.332647 384.002557 739.555438 384.002557l0-113.780278 113.778232 0L853.33367 384.002557zM284.444554 896l-56.888605 0 0-170.663768 56.888605 0L284.444554 896zM568.888601 384.002557 455.111391 384.002557l0-113.780278 113.778232 0L568.889624 384.002557zM682.666833 839.110372 341.333159 839.110372l0-56.885536 341.333674 0L682.666833 839.110372zM284.444554 384.002557 170.666322 384.002557l0-113.780278 113.778232 0L284.444554 384.002557zM967.11088 839.110372 853.332647 839.110372l0-56.885536 56.888605 0c31.417118 0 56.888605-25.471487 56.888605-56.888605l0-170.669906L56.889112 554.666326 56.889112 725.336232c0 31.417118 25.469441 56.888605 56.888605 56.888605l56.888605 0L170.666322 839.110372 56.889112 839.110372c-31.420187 0-56.888605-25.469441-56.888605-56.885536l0-853.336232c0-31.417118 25.469441-56.888605 56.888605-56.888605l910.221768 0c31.420187 0 56.888605 25.471487 56.888605 56.888605L1023.999485 782.224837C1023.999485 813.641955 998.531067 839.110372 967.11088 839.110372zM967.11088-14.219722c0-31.420187-25.471487-56.891674-56.888605-56.891674L113.777717-71.111395c-31.420187 0-56.888605 25.471487-56.888605 56.891674l0 511.997443 910.221768 0L967.11088-14.219722zM284.444554 156.444047 170.666322 156.444047l0-113.775163 113.778232 0L284.444554 156.444047zM568.888601 156.444047 455.111391 156.444047l0-113.775163 113.778232 0L568.889624 156.444047zM796.444043 896l-56.888605 0 0-170.663768 56.888605 0L796.444043 896zM853.332647 156.444047 739.555438 156.444047l0-113.775163 113.778232 0L853.33367 156.444047z"  horiz-adv-x="1024" />

    
    <glyph glyph-name="search2" unicode="&#58942;" d="M621.664 242.336c-44.48-31.68-98.88-50.336-157.664-50.336-150.208 0-272 121.792-272 272s121.792 272 272 272c150.208 0 272-121.792 272-272 0-75.104-30.432-143.104-79.68-192.32l191.904-191.904c8.8-8.8 8.576-22.912-0.256-31.744-8.896-8.896-23.04-8.96-31.744-0.256l-194.592 194.592zM464 224c132.544 0 240 107.456 240 240s-107.456 240-240 240c-132.544 0-240-107.456-240-240s107.456-240 240-240l0 0z"  horiz-adv-x="1024" />

    
    <glyph glyph-name="666" unicode="&#58938;" d="M699.638029 372.327146l17.122983 132.780119L610.151949 505.107265l-0.99363 84.776825c0 38.441521-13.164834 64.641229 41.954531 64.641229l70.25611 0.039909L721.36896 773.31582c-12.130272 1.620917-53.832046 5.235235-102.43602 5.235235-101.386108 0-170.747849-61.890582-170.747849-175.531805l0-97.913007L333.517491 505.106242l0-132.780119 114.668623 0 0-340.684216 159.979598 0 0.99363 340.684216L699.638029 372.326123z"  horiz-adv-x="1024" />

    
    <glyph glyph-name="pinterestpinterest30" unicode="&#58889;" d="M512 896C229.236364 896 0 666.763636 0 384s229.236364-512 512-512c282.763636 0 512 229.236364 512 512S794.763636 896 512 896zM559.104 228.957091c-37.841455 0-73.448727 20.898909-85.690182 44.637091 0 0-20.340364-82.478545-24.669091-98.397091-7.261091-26.903273-21.271273-53.76-34.257455-75.031273-18.525091-24.203636-39.889455-6.237091-42.449455 15.825455-0.837818 24.576 0.046545 53.666909 6.144 80.151273 6.749091 29.044364 45.102545 195.072 45.102545 195.072s-11.217455 22.853818-11.217455 56.645818c0 53.061818 30.114909 92.672 67.630545 92.672 31.883636 0 47.290182-24.482909 47.290182-53.76 0-32.721455-20.433455-81.687273-30.952727-127.022545-8.797091-37.981091 18.664727-68.933818 55.342545-68.933818 66.420364 0 111.197091 87.133091 111.197091 190.324364 0 78.475636-51.758545 137.169455-145.92 137.169455-106.356364 0-172.637091-80.989091-172.637091-171.426909 0-31.185455 8.983273-53.201455 23.133091-70.190545 6.469818-7.819636 7.400727-10.984727 5.026909-19.968-1.675636-6.609455-5.538909-22.434909-7.121455-28.718545-2.327273-9.076364-9.541818-12.288-17.547636-8.936727-49.012364 20.433455-71.819636 75.217455-71.819636 136.750545 0 101.701818 84.014545 223.650909 250.600727 223.650909 133.864727 0 221.975273-98.909091 221.975273-205.079273C748.311273 333.870545 671.837091 228.957091 559.104 228.957091z"  horiz-adv-x="1024" />

    
    <glyph glyph-name="shuye" unicode="&#58911;" d="M2.198036 749.322359l-1.108241 16.882506-1.089821-17.302061 0.491187-7.79043 0-18.251689 0.024559-0.599657c0.010233-0.249687 0.25378-6.132674 0.581238-6.39464 0.007163-0.00614 0.013303-0.008186 0.020466-0.008186 0.321318 0 0.528026 6.009877 0.537236 6.271844l0.020466 0.592494 0 18.215874L2.198036 749.322359 2.198036 749.322359zM1.090819 761.771903l0.822738-12.538571-0.823761-13.1853-0.809435 12.856819L1.090819 761.771903 1.090819 761.771903zM1.54926 724.53686c-0.055259-1.357927-0.223081-4.848425-0.450255-4.680603-0.231267 0.185218-0.419556 3.669576-0.484024 5.033643L0.614981 739.134323l0.474814-7.544837 0.459464 7.354502L1.54926 724.53686 1.54926 724.53686zM1.54926 724.53686M959.30144 130.394025c1.334391-4.000104-5.340635-8.004301-8.009418-10.674107L767.095883-61.808462l-4.004197-2.669806 0 0-10.679223 0L719.042448-64.478268 719.042448 130.394025c0 26.698059 21.35947 48.053436 48.053436 48.053436l193.540971 0L959.30144 130.394025 959.30144 130.394025 959.30144 130.394025zM791.11902 130.394025c-13.344936 0-24.02416-10.674107-24.02416-24.02416l0-98.771561 122.795721 122.795721L791.11902 130.394025 791.11902 130.394025zM476.118766 8.933719l0 24.02416 145.487535 0 0-24.02416L476.118766 8.933719 476.118766 8.933719zM440.079968 32.957879c6.675026 0 12.013615-5.340635 12.013615-12.010545 0-6.675026-5.338588-12.013615-12.013615-12.013615-6.66991 0-12.010545 5.338588-12.010545 12.013615C428.070447 27.618267 433.405965 32.957879 440.079968 32.957879L440.079968 32.957879zM428.06533 238.513488c0 6.66991 5.340635 12.010545 12.014638 12.010545l217.566154 0c6.675026 0 12.009522-5.339612 12.009522-12.010545l0-24.028253c0-6.675026-5.338588-12.010545-12.009522-12.010545L440.079968 202.47469c-6.675026 0-12.010545 5.339612-12.010545 12.010545l0 24.028253L428.06533 238.513488zM779.110521 589.553563 440.079968 589.553563c-6.675026 0-12.010545 5.339612-12.010545 12.010545l0 24.028253c0 6.66991 5.340635 12.010545 12.010545 12.010545L779.110521 637.602905c6.675026 0 12.009522-5.340635 12.009522-12.010545l0-24.028253C791.11902 594.893174 785.784524 589.553563 779.110521 589.553563L779.110521 589.553563zM791.11902 408.026206c0-6.675026-5.338588-12.013615-12.009522-12.013615L440.079968 396.012591c-6.675026 0-12.010545 5.338588-12.010545 12.013615l0 24.025183c0 6.675026 5.340635 12.013615 12.010545 12.013615L779.110521 444.065004c6.675026 0 12.009522-5.338588 12.009522-12.013615L791.120043 408.026206 791.11902 408.026206 791.11902 408.026206zM912.584442 735.042121c0 26.693965-21.35947 48.047296-48.052412 48.047296l-508.542248 0c-26.693965 0-48.048319-21.35333-48.048319-48.047296l0-702.084243c0-26.693965 21.354354-48.048319 48.048319-48.048319L719.042448-15.090441l0-48.051389L355.988758-63.14183c-53.388954 0-97.436146 42.712801-97.436146 97.436146L258.552612 735.042121c0 53.387931 44.047192 97.436146 97.436146 97.436146l507.207857 0c53.392024 0 97.439216-42.713824 97.439216-97.436146l0-556.595684-48.052412 0L912.583419 735.042121 912.584442 735.042121 912.584442 735.042121zM912.584442 735.042121"  horiz-adv-x="1122" />

    
    <glyph glyph-name="huiyuandengji0101" unicode="&#58901;" d="M793.270035 321.816752c20.511149 41.156352 23.741727 85.658915 23.741727 134.610814 0 170.908508-131.935891 311.067688-305.300334 311.067688-173.368536 0-305.309544-140.137691-305.309544-311.067688 0-48.957015 3.230578-93.480045 23.741727-134.63742l-115.909893-199.467961c0 0 79.3093-29.187763 161.2925-46.086641 54.670134-60.863183 99.06525-126.263705 99.06525-126.263705l108.314914 206.912513c6.638187-0.413416 16.294105 0 23.037692 0 6.745634 0 16.427134-0.413416 23.043832 0l115.210975-195.859783c0 0 49.040926 54.323233 103.688547 115.211998 81.983199 16.893762 161.2925 46.086641 161.2925 46.086641L793.270035 321.816752 793.270035 321.816752 793.270035 321.816752zM367.694383 30.149926c0 0-38.424124 49.361221-75.314313 85.252663-52.323693 14.878872-120.541377 29.957289-120.541377 29.957289l80.644715 138.249691c42.717917-55.749722 112.862487-108.394732 183.780677-125.672234L367.694383 30.149926 367.694383 30.149926zM505.944074 191.446519c-67.488067 0-258.462586 40.35101-264.980024 264.981047-4.098341 141.254118 124.028804 276.504498 264.980024 276.504498 140.947126 0 275.69097-135.198192 276.504498-276.504498C783.681656 242.775558 573.436234 191.446519 505.944074 191.446519L505.944074 191.446519zM644.198881 30.149926l-69.12945 126.734426c70.923306 17.276479 153.145959 70.976518 195.859783 126.731356l80.644715-138.254807c-0.022513 0.031722-68.217684-15.056927-120.541377-29.957289L644.198881 30.149926 644.198881 30.149926zM511.711428 639.683287c-98.775654 0-178.842201-80.110549-178.842201-178.935322s80.065524-178.935322 178.842201-178.935322c98.766444 0 178.832991 80.110549 178.832991 178.935322S610.477872 639.683287 511.711428 639.683287L511.711428 639.683287 511.711428 639.683287zM517.468548 318.177875c-44.373627 0-142.378731 17.561981-149.775188 149.769049-3.941775 70.463842 79.234599 138.254807 149.775188 138.254807 70.53445 0 136.465045-79.221296 138.249691-149.773142C658.05854 363.827565 561.842175 318.177875 517.468548 318.177875L517.468548 318.177875zM517.468548 318.177875"  horiz-adv-x="1024" />

    
    <glyph glyph-name="biaoqian" unicode="&#58896;" d="M736.693482 721.27456c-61.534472 0-111.418602-49.884131-111.418602-111.418602s49.884131-111.418602 111.418602-111.418602 111.418602 49.884131 111.418602 111.418602S798.227953 721.27456 736.693482 721.27456zM736.693482 554.151261c-30.769794 0-55.708789 24.940019-55.708789 55.704696 0 30.769794 24.940019 55.708789 55.708789 55.708789s55.708789-24.940019 55.708789-55.708789C792.403295 579.09128 767.463276 554.151261 736.693482 554.151261zM959.508173 470.351694l0 6.257517L959.508173 764.879684c0 37.391608-30.41266 67.813478-67.782779 67.813478L603.437525 832.653253l-12.349259 0.039909c-18.87386 0-47.437405 0-66.084091-18.659989L84.605933 373.626745c-10.585079-10.585079-16.432251-24.650423-16.432251-39.593763 0-14.988366 5.824659-29.05371 16.405645-39.637766l336.675926-336.62169c10.553357-10.602476 24.618701-16.427134 39.58046-16.427134s29.048593 5.824659 39.602973 16.405645l440.410522 440.419731C959.727161 417.022091 959.619714 444.145845 959.508173 470.351694zM901.459083 437.562916 460.643332-2.838396 123.994012 334.220247l439.920358 440.018595c4.429893 2.749624 20.376073 2.749624 26.981515 2.749624l12.541641-0.045025 288.288892 0.045025c6.662747 0 12.072967-5.432733 12.072967-12.108782l0-288.270473 0-6.484691C903.852596 459.526137 903.910924 441.793264 901.459083 437.562916z"  horiz-adv-x="1024" />

    
    <glyph glyph-name="quxiao1" unicode="&#59161;" d="M572.133 384l330.488 330.543c16.55 16.55 16.55 43.581 0 60.133s-43.529 16.55-60.133 0l-330.488-330.597-330.543 330.597c-16.55 16.55-43.581 16.55-60.133 0s-16.55-43.581 0-60.133l330.597-330.543-330.597-330.488c-16.55-16.55-16.55-43.636 0-60.133s43.581-16.55 60.133 0l330.543 330.488 330.488-330.488c16.55-16.55 43.636-16.55 60.133 0s16.55 43.529 0 60.133l-330.488 330.488z"  horiz-adv-x="1024" />

    
    <glyph glyph-name="cha" unicode="&#58950;" d="M928.85 772.279l-36.235 36.234-381.621-381.621-381.622 381.621-36.234-36.234 381.621-381.622-381.621-381.621 36.234-36.235 381.622 381.621 381.621-381.621 36.235 36.235-381.621 381.621z"  horiz-adv-x="1024" />

    
    <glyph glyph-name="quxiao2" unicode="&#58885;" d="M81.910033-77.246059c8.662287 0 17.288758 3.287883 23.823592 9.82374l0 0.039909 385.827369 385.824299 11.874445 11.912307 11.949146-11.912307 385.826346-385.824299c6.574742-6.575766 15.161305-9.863648 23.784706-9.863648 8.625448 0 17.248849 3.287883 23.824615 9.863648 6.573719 6.573719 9.861602 15.198144 9.861602 23.822568 0 8.624425-3.287883 17.247826-9.861602 23.824615L562.992883 366.050186l-11.913331 11.913331 11.913331 11.912307 385.826346 385.825322 0.075725 0c6.538927 6.53688 9.785877 15.160281 9.785877 23.824615 0 8.662287-3.246951 17.286712-9.785877 23.784706-6.573719 6.573719-15.240099 9.900487-23.90034 9.900487-8.623401 0-17.288758-3.28686-23.823592-9.862625l0.038886-0.037862L515.383562 437.523007l-11.913331-11.911284-11.910261 11.911284L105.733625 823.310468l0 0.076748c-6.534833 6.53688-15.161305 9.785877-23.823592 9.785877-8.623401 0-17.288758-3.248997-23.783683-9.785877-6.576789-6.575766-9.863648-15.238053-9.863648-23.861454 0-8.664334 3.28686-17.288758 9.824763-23.863501l0.039909 0.038886 385.78439-385.825322 11.914354-11.912307-11.914354-11.913331L58.12635-19.735228l-0.039909 0.038886c-6.53688-6.575766-9.824763-15.240099-9.824763-23.863501 0-8.66331 3.28686-17.327644 9.863648-23.862477C64.621275-73.958176 73.286632-77.246059 81.910033-77.246059z"  horiz-adv-x="1024" />

    
    <glyph glyph-name="xiangzuo" unicode="&#58953;" d="M-708.46461 704.135307-708.46461 704.135307-708.46461 704.135307ZM743.762897-121.225551 101.301027 379.109707 743.762897 879.445978Z"  horiz-adv-x="1024" />

    
    <glyph glyph-name="googleplus" unicode="&#59169;" d="M821.152 374.272q0-118.848-49.728-211.712t-141.728-145.152-210.848-52.288q-85.152 0-162.848 33.152t-133.728 89.152-89.152 133.728-33.152 162.848 33.152 162.848 89.152 133.728 133.728 89.152 162.848 33.152q163.424 0 280.576-109.728l-113.728-109.152q-66.848 64.576-166.848 64.576-70.272 0-130.016-35.424t-94.56-96.288-34.848-132.864 34.848-132.864 94.56-96.288 130.016-35.424q47.424 0 87.136 13.152t65.44 32.864 44.864 44.864 28 47.424 12.288 42.272l-237.728 0 0 144 395.424 0q6.848-36 6.848-69.728zM1316.576 444l0-120-119.424 0 0-119.424-120 0 0 119.424-119.424 0 0 120 119.424 0 0 119.424 120 0 0-119.424 119.424 0z"  horiz-adv-x="1317" />

    
    <glyph glyph-name="google1" unicode="&#58913;" d="M338.048 546.752M544.448 236.8c-18.56 11.136-38.72 16.704-60.544 16.704-24.192 0-46.016-5.696-65.472-17.088-19.456-11.392-29.184-28.48-29.184-51.264 0-20.864 9.152-37.056 27.456-48.448 18.24-11.392 38.528-17.088 60.8-17.088 22.336 0 43.712 6.4 64.128 19.264 20.416 12.8 30.592 29.568 30.592 50.496C572.16 209.856 562.88 225.6 544.448 236.8zM521.92 392.32c7.36 11.84 11.072 26.048 11.072 42.688 0 21.824-6.016 43.52-18.112 65.088-12.096 21.568-28.352 32.384-48.704 32.384-15.68 0-27.2-5.952-34.56-17.792-7.36-11.904-11.072-26.112-11.072-42.688 0-21.888 6.08-43.584 18.112-65.152 12.16-21.632 28.352-32.384 48.768-32.384C503.104 374.464 514.56 380.416 521.92 392.32zM518.08 790.464c-244.224 0-442.176-197.952-442.176-442.176s197.952-442.176 442.176-442.176 442.176 197.952 442.176 442.176S762.304 790.464 518.08 790.464zM581.056 96.576c-32-21.632-69.888-32.384-113.536-32.384-38.912 0-72.896 8.896-102.08 26.688-29.184 17.792-43.776 44.992-43.776 81.536 0 26.112 9.024 47.744 27.008 64.768 18.048 17.152 38.336 28.48 60.864 34.176 22.528 5.696 46.848 8.512 72.96 8.512-1.92 4.736-3.968 8.192-6.08 10.304-2.112 2.176-3.904 3.328-5.312 3.584-1.408 0.256-2.624 2.944-3.584 8.192-0.96 5.248-1.408 13.504-1.408 24.96l-4.288 0c-33.216-0.448-60.288 9.536-81.152 29.888-20.864 20.352-31.296 47.168-31.296 80.384 0 28.032 8.192 52.224 24.576 72.576 16.384 20.416 38.336 35.136 65.856 44.16 10.432 3.328 24.384 5.824 41.984 7.424 17.536 1.664 31.936 2.624 43.008 2.88 11.136 0.256 28.352 0.256 51.648 0 23.296-0.256 35.584-0.384 36.992-0.384 10.432 0 15.68-2.624 15.68-7.808 0-4.288-1.088-7.936-3.136-11.008-2.176-3.072-5.824-5.44-11.008-7.104-5.184-1.664-9.28-2.816-12.096-3.584-2.88-0.704-7.68-1.408-14.592-2.112-6.912-0.704-10.56-1.088-11.072-1.088 20.864-14.72 31.296-40.128 31.296-76.16 0-19.904-3.584-37.568-10.688-52.672-7.104-15.232-15.04-26.24-23.872-33.152-8.832-6.912-16.704-13.76-23.808-20.672-7.168-6.912-10.688-12.928-10.688-18.112 0-4.736 4.608-11.52 13.888-20.352 9.216-8.768 19.52-17.92 30.976-27.392 11.392-9.472 21.696-22.528 30.912-39.168 9.28-16.64 13.888-33.92 13.888-51.968C629.12 149.824 613.12 118.144 581.056 96.576zM782.144 440l0-86.144-42.688 0L739.456 440l-86.848 0 0 42.752 86.848 0L739.456 569.536l42.688 0 0-86.848 86.08 0 0-42.752L782.144 439.936z"  horiz-adv-x="1024" />

    
    <glyph glyph-name="iconhuifu" unicode="&#59003;" d="M544.704 794.88C320.128 794.88 137.472 640 137.472 384l-93.44 0 142.336-195.52L328 384l-92.8 0c0 192 138.88 313.152 309.504 313.152s309.504-137.024 309.504-307.712-138.88-308.608-309.504-308.608c-27.008 0-48.896-21.44-48.896-48.448 0-27.008 21.888-48.64 48.896-48.64 224.576 0 407.296 180.992 407.296 405.568S769.28 794.88 544.704 794.88z"  horiz-adv-x="1024" />

    
    <glyph glyph-name="tian7_facebook" unicode="&#58880;" d="M503.149 852.515c-265.206 0-479.885-214.685-479.885-479.885s214.685-479.885 479.885-479.885c265.206 0 479.885 214.685 479.885 479.885 0 265.206-214.685 479.885-479.885 479.885zM631.931 375.149h-83.312v-300.556h-123.76v300.556h-63.151v103.536h63.151v63.151c0 83.312 35.363 133.841 133.841 133.841h83.312v-103.536h-50.525c-37.866 0-40.39-15.168-40.39-40.39v-50.525h93.426l-12.622-106.081z"  horiz-adv-x="1024" />

    
    <glyph glyph-name="zizhujiaofei" unicode="&#58883;" d="M846.023004-61.010283 177.393711-61.010283c-61.561078 0-111.440092 49.880037-111.440092 111.440092L65.953619 719.059102c0 61.560054 49.880037 111.449301 111.440092 111.449301l668.629293 0c61.560054 0 111.458511-49.889247 111.458511-111.449301l0-668.629293C957.481516-11.130246 907.583059-61.010283 846.023004-61.010283L846.023004-61.010283zM901.725654 719.059102c0 30.760584-24.958438 55.70265-55.703673 55.70265L177.393711 774.761752c-30.797423 0-55.755862-24.942065-55.755862-55.70265l0-668.629293c0-30.797423 24.958438-55.754838 55.755862-55.754838l668.629293 0c30.745235 0 55.703673 24.958438 55.703673 55.754838L901.726677 719.059102 901.725654 719.059102zM628.219443 615.53633l-73.951269-136.173402c-19.697621-36.893258-31.742958-61.416791-36.165688-73.605392l-1.235131 0c-13.005198 29.567409-49.733705 99.505271-110.097514 209.778794l-69.470211 0 129.216967-222.022653L360.536868 393.513678l0-49.062416 124.246769 0 0-67.61905L360.536868 276.832212l0-49.699935 124.246769 0 0-98.471732 61.613266 0 0 98.471732 119.893624 0 0 49.699935L546.39588 276.832212l0 67.61905 119.893624 0 0 49.062416L563.410392 393.513678l130.523729 222.022653L628.219443 615.53633 628.219443 615.53633z"  horiz-adv-x="1024" />

    
    <glyph glyph-name="liaotian" unicode="&#58919;" d="M1012.44892 753.899608c0 43.272549-35.208896 78.473259-78.475306 78.473259L89.336678 832.372867c-43.274596 0-78.475306-35.198663-78.475306-78.473259l0-533.411659c0-43.268456 35.20071-78.474282 78.475306-78.474282l99.343589 0 0-207.591989 207.519334 207.591989 537.77913 0c43.266409 0 78.472236 35.205826 78.472236 78.474282L1012.450966 753.899608 1012.44892 753.899608zM940.058193 214.405417 366.226962 214.405417 261.065877 109.251495 261.065877 214.405417 83.255169 214.405417 83.255169 759.989303l856.806093 0 0-545.585933-0.002047 0L940.058193 214.405417 940.058193 214.405417zM728.013799 527.44911c-31.014364 0-56.242955-25.204032-56.242955-56.19179 0-31.06246 25.229614-56.335053 56.242955-56.335053s56.245002 25.272593 56.245002 56.335053C784.262894 502.245078 759.029186 527.44911 728.013799 527.44911M505.749646 527.44911c-31.019481 0-56.254212-25.204032-56.254212-56.19179 0-31.06246 25.234731-56.335053 56.254212-56.335053 31.012318 0 56.243979 25.272593 56.243979 56.335053C561.992601 502.245078 536.761963 527.44911 505.749646 527.44911M283.47219 527.44911c-31.014364 0-56.249095-25.204032-56.249095-56.19179 0-31.06246 25.232684-56.335053 56.249095-56.335053 31.012318 0 56.246025 25.272593 56.246025 56.335053C339.719238 502.245078 314.484508 527.44911 283.47219 527.44911"  horiz-adv-x="1028" />

    
    <glyph glyph-name="jifenqianbi" unicode="&#59092;" d="M133.76 820.736c-39.04-22.4-58.624-46.656-58.624-72.832l0-72.768c0-26.176 19.584-50.496 58.624-72.832C172.8 579.84 225.92 562.176 292.992 549.056 360.128 536.064 433.152 529.6 512 529.6c78.848 0 151.808 6.592 218.944 19.648 67.072 13.056 120.192 30.784 159.232 53.184 38.912 22.4 58.56 46.656 58.56 72.832L948.736 747.968c0 26.176-19.648 50.432-58.56 72.832-39.04 22.336-92.16 40.064-159.232 53.184C663.808 886.976 590.848 893.504 512 893.504c-78.848 0-151.872-6.528-219.008-19.584C225.984 860.8 172.864 843.072 133.76 820.736M75.264 335.104l0-96.768c0-26.112 19.584-50.368 58.624-72.832 39.04-22.464 92.16-40 159.232-53.12 67.2-13.056 140.096-19.712 219.008-19.712 78.72 0 151.808 6.656 218.944 19.712 67.072 13.056 120.192 30.656 159.168 53.12s58.624 46.656 58.624 72.832L948.864 335.104c-45.056-31.872-106.752-56-184.896-72.256C685.824 246.656 601.856 238.4 512 238.4c-89.856 0-173.824 8.256-251.968 24.512C181.952 279.104 120.384 303.232 75.264 335.104M75.264 116.608l0-96.64c0-26.24 19.584-50.496 58.624-72.96 39.04-22.336 92.16-40 159.232-53.12 67.008-12.928 140.032-19.52 218.88-19.52 78.848 0 151.808 6.592 218.944 19.712 67.072 13.056 120.192 30.72 159.232 53.12 38.912 22.4 58.56 46.656 58.56 72.896l0 96.768c-45.056-31.872-106.88-55.936-184.896-72.384-78.08-16.384-161.984-24.512-251.904-24.512-89.856 0-173.824 8.128-251.968 24.512C181.952 60.864 120.384 84.8 75.264 116.608M75.264 553.472l0-96.704c0-26.176 19.584-50.432 58.624-72.768 39.04-22.4 92.16-40.064 159.232-53.184C360.128 317.76 433.152 311.104 512 311.104c78.848 0 151.808 6.656 218.944 19.712C798.016 343.872 851.136 361.6 890.176 384c38.912 22.336 58.56 46.656 58.56 72.768L948.736 553.472c-45.056-31.872-106.88-55.936-184.768-72.192C685.824 464.96 601.856 456.768 512 456.768c-89.856 0-173.824 8.128-251.968 24.448C181.952 497.472 120.384 521.6 75.264 553.472"  horiz-adv-x="1024" />

    
    <glyph glyph-name="search3" unicode="&#58912;" d="M614.162387 199.488401C551.119204 152.971616 473.18203 125.477087 388.823174 125.477087 178.999786 125.477087 8.904348 295.572547 8.904348 505.395926 8.904348 715.219309 178.999786 885.314769 388.823174 885.314769 598.646561 885.314769 768.742044 715.219309 768.742044 505.395926 768.742044 421.036878 741.247377 343.099552 694.730396 280.056275 695.012886 279.790668 695.292171 279.519918 695.568028 279.24403L983.834134-9.022059C998.652171-23.8401 998.772781-47.744263 983.828257-62.688781L956.907876-89.609163C942.086634-104.430436 917.902247-104.276088 903.241194-89.615013L614.975087 198.651071C614.699097 198.927066 614.428182 199.206217 614.162387 199.488401ZM388.823174 201.460856C556.681884 201.460856 692.758261 337.53722 692.758261 505.395926 692.758261 673.254632 556.681884 809.331 388.823174 809.331 220.964463 809.331 84.888131 673.254632 84.888131 505.395926 84.888131 337.53722 220.964463 201.460856 388.823174 201.460856Z"  horiz-adv-x="1024" />

    
    <glyph glyph-name="time" unicode="&#59063;" d="M512 896C229.656 896 0 666.328 0 384c0-282.313 229.656-512 512-512s512 229.688 512 512C1024 666.328 794.344 896 512 896zM512-54.531c-241.797 0-438.531 196.75-438.531 438.531C73.469 625.797 270.203 822.531 512 822.531c241.781 0 438.531-196.734 438.531-438.531C950.531 142.219 753.781-54.531 512-54.531zM694.813 384 512 384 512 639.922c0 20.297-16.266 36.719-36.578 36.719-20.297 0-36.563-16.469-36.563-36.719l0-292.484c0-20.281 16.297-36.594 36.563-36.594l219.391 0c20.344 0 36.719 16.313 36.719 36.594S715.156 384 694.813 384z"  horiz-adv-x="1024" />

    
    <glyph glyph-name="facebookicon" unicode="&#58990;" d="M422.586279 715.043659c0-59.609148 0-119.218295 0-180.956341-59.609148 0-119.218295 0-180.956341 0 0-59.609148 0-119.218295 0-180.956341 59.609148 0 119.218295 0 180.956341 0 0-159.66736 0-321.463617 0-481.130977 59.609148 0 119.218295 0 180.956341 0 0 159.66736 0 321.463617 0 481.130977 59.609148 0 119.218295 0 180.956341 0 0 59.609148 0 119.218295 0 180.956341-59.609148 0-119.218295 0-180.956341 0 0 40.449064 0 80.898129 0 119.218295 0 34.06237 27.675676 59.609148 59.609148 59.609148 40.449064 0 80.898129 0 119.218295 0 0 59.609148 0 119.218295 0 180.956341-59.609148 0-119.218295 0-180.956341 0C503.484407 896 422.586279 815.101871 422.586279 715.043659z"  horiz-adv-x="1024" />

    
    <glyph glyph-name="tuite" unicode="&#58995;" d="M783.9232 476.4928c0 6.2208-0.1024 12.40064-0.36352 18.50368 24.87808 19.85024 46.45376 44.672 63.52896 73.088-22.8352-10.97728-47.34976-18.3296-73.11872-21.38624 26.30144 17.30048 46.46912 44.99968 55.99232 78.2336-24.61696-15.9744-51.84512-27.42784-80.81408-33.34656-23.20384 28.2624-56.30976 46.24384-92.91264 46.91456-70.29248 1.24416-127.27296-62.32576-127.27296-141.99296 0-11.29984 1.1008-22.30784 3.3024-32.896-105.856 7.296-199.65952 66.2528-262.4 155.1616-10.94656-21.30432-17.23392-46.19264-17.23392-72.87808 0-50.44224 22.46656-95.2832 56.62208-121.73824-20.89984 1.00352-40.48896 7.77216-57.66656 18.87744 0-0.60928 0-1.22368 0-1.83808 0-70.50752 43.89376-129.5872 102.12352-143.39072-10.68032-3.2512-21.94432-4.94592-33.52064-4.87936-8.22272 0.06144-16.1792 0.9984-23.93088 2.80064 16.18432-57.78944 63.21152-100.00384 118.8864-101.39648-43.5712-38.69184-98.46272-61.77792-158.05952-61.62432-10.27072 0-20.43392 0.74752-30.37696 2.08896 56.35584-41.37472 123.2384-65.46432 195.1488-65.46432C655.91808 69.248 783.9232 287.30368 783.9232 476.4928z"  horiz-adv-x="1024" />

    
    <glyph glyph-name="liaotian1" unicode="&#58925;" d="M695.727614 46.784458C692.736041 46.801916 689.888485 46.306592 687.399871 45.284308L687.314772 45.284308C685.329118 44.457317 683.427474 43.136094 681.774581 41.320638L559.4616-93.011001C558.106554-94.486057 556.682776-95.926202 555.251359-97.213603 543.898223-107.356801 529.134561-112.505318 514.525825-112.521682 499.848355-112.539138 485.068329-107.441901 473.697735-97.111049L473.536264-96.940849C472.380876-95.867287 471.064016-94.51988 469.556228-92.849531L351.184007 39.317528C349.782049 40.868958 347.991687 42.027618 345.984214 42.778238 343.086468 43.886714 339.762135 44.457317 336.326519 44.61115L336.245784 44.61115C304.141475 46.15385 281.127535 46.256405 256.503248 46.332778L256.422513 46.332778C224.944451 46.44406 190.795576 46.596804 135.699147 49.444361L135.699147 49.41054C105.683049 49.41054 78.331218 61.769595 58.509596 81.561761L58.458318 81.519211C38.658516 101.319013 26.349647 128.680664 26.349647 158.751313L26.349647 758.857249C26.349647 788.855891 38.670517 816.212086 58.458318 836.012978L58.509596 836.0468 58.543417 836.093714C78.347583 855.881514 105.700505 868.198021 135.699147 868.198021L898.768319 868.198021C928.856423 868.198021 956.200618 855.898971 976.009148 836.093714L975.95787 836.0468C995.757673 816.225178 1008.109091 788.877711 1008.109091 758.857249L1008.109091 158.750221C1008.109091 128.678481 995.817677 101.317922 976.009148 81.518119 956.200618 61.718319 928.856423 49.409449 898.768319 49.409449L898.768319 49.478183C849.927789 48.523543 808.008682 47.850383 774.801354 47.407431 734.109642 46.860831 706.766539 46.681903 695.727614 46.784458L695.727614 46.784458 695.727614 46.784458ZM767.897391 495.772347C744.815806 495.772347 726.114659 477.071201 726.114659 453.99398 726.114659 430.921124 744.815806 412.215614 767.897391 412.215614 790.978976 412.215614 809.68012 430.921124 809.68012 453.99398 809.68012 477.072292 790.978976 495.772347 767.897391 495.772347L767.897391 495.772347 767.897391 495.772347ZM517.235915 495.772347C494.158693 495.772347 475.457547 477.071201 475.457547 453.99398 475.457547 430.921124 494.158693 412.215614 517.235915 412.215614 540.308772 412.215614 559.009918 430.921124 559.009918 453.99398 559.009918 477.072292 540.308772 495.772347 517.235915 495.772347L517.235915 495.772347 517.235915 495.772347ZM266.570077 495.772347C243.497219 495.772347 224.796073 477.071201 224.796073 453.99398 224.796073 430.921124 243.497219 412.215614 266.570077 412.215614 289.647296 412.215614 308.348442 430.921124 308.348442 453.99398 308.348442 477.072292 289.647296 495.772347 266.570077 495.772347L266.570077 495.772347 266.570077 495.772347ZM671.427362 83.767799 671.409906 83.81035C679.029579 86.964483 687.399871 88.455907 696.060375 88.387172 706.809089 88.310801 733.854343 88.480999 774.307123 89.009052 807.003853 89.443278 848.837863 90.133892 898.359187 91.10599L898.768319 91.182361C917.32436 91.182361 934.208961 98.802034 946.466552 111.050896 958.723052 123.307398 966.335087 140.201816 966.335087 158.74913L966.335087 758.857249C966.335087 777.460204 958.757964 794.370989 946.551651 806.555482L946.466552 806.555482C934.210052 818.807618 917.32436 826.424018 898.768319 826.424018L135.699147 826.424018C117.096192 826.424018 100.189771 818.842531 87.99655 806.636217L87.915815 806.555482C75.713865 794.370989 68.132378 777.460204 68.132378 758.857249L68.132378 158.750221C68.132378 140.202908 75.747686 123.309579 87.99655 111.060715L87.99655 110.966889C100.189771 98.769303 117.096192 91.192181 135.699147 91.192181L136.75198 91.10708C192.691766 88.19188 225.91764 88.046775 256.508704 87.952946L256.593805 87.952946C282.250192 87.850391 306.243869 87.747835 338.219435 86.213863 346.048584 85.838554 353.732625 84.508602 360.819882 81.798512 368.827956 78.738205 376.162873 73.999913 382.363132 67.04467L382.316217 67.00212 500.577156-65.113661 501.762-66.255957C505.180162-69.358812 509.850811-70.910242 514.525825-70.910242 519.277211-70.910242 524.029686-69.291169 527.515491-66.188314L528.734158-64.986012 528.682879-64.952189 650.919489 69.379449C656.774985 75.790273 663.705134 80.554751 671.427362 83.767799L671.427362 83.767799Z"  horiz-adv-x="1024" />

    
    <glyph glyph-name="xiangzuo1" unicode="&#58918;" d="M671.968176-15.99957c-12.287381 0-24.576482 4.67206-33.951566 14.047144L286.048434 350.015751c-18.751888 18.719204-18.751888 49.12028 0 67.872168L638.016611 769.888778c18.751888 18.751888 49.12028 18.751888 67.872168 0 18.751888-18.719204 18.751888-49.12028 0-67.872168l-318.016611-318.047574L705.888778 65.952426c18.751888-18.751888 18.751888-49.12028 0-67.872168C696.544658-11.32751 684.255557-15.99957 671.968176-15.99957z"  horiz-adv-x="1024" />

    
    <glyph glyph-name="xiangxia" unicode="&#59175;" d="M881.975333 646.688841 512 276.713508 142.024667 646.688841 64.322981 568.987155 512 121.311159 959.677019 568.987155Z"  horiz-adv-x="1024" />

    
    <glyph glyph-name="quxiao3" unicode="&#59011;" d="M555.4688 382.99264l90.52672 90.52672c4.3712 4.3712 6.76736 10.18752 6.74944 16.3776-0.0192 6.14656-2.42048 11.89504-6.74944 16.17536-4.352 4.35328-10.14528 6.75072-16.30976 6.75072-6.17216 0-11.94496-2.40128-16.2432-6.74944l-90.528-90.528-90.976 90.88768c-4.352 4.35328-10.14528 6.75072-16.30976 6.75072-6.17216 0-11.94496-2.40128-16.24192-6.74944-4.3712-4.3712-6.76864-10.1888-6.75072-16.37888 0.0192-6.14656 2.42048-11.89504 6.75072-16.17408l90.88768-90.8864-91.33824-91.33824c-4.3712-4.3712-6.76864-10.18752-6.75072-16.37888 0.0192-6.14656 2.42048-11.89504 6.75072-16.17536 4.352-4.35328 10.14528-6.74944 16.30976-6.74944 6.17088 0 11.94368 2.40128 16.24192 6.74944l91.33824 91.33824 90.8864-90.88768c4.352-4.35328 10.14528-6.75072 16.30976-6.75072 6.17216 0 11.94496 2.40256 16.2432 6.75072 4.3712 4.3712 6.76864 10.1888 6.75072 16.37888-0.0192 6.14656-2.42048 11.89504-6.74944 16.17408L555.4688 382.99264zM522.60096 766.76864c-211.73888 0-384-172.26112-384-384s172.26112-384 384-384c211.7376 0 384 172.26112 384 384S734.33856 766.76864 522.60096 766.76864zM522.60096 46.76864c-185.27104 0-336 150.72896-336 336 0 185.27104 150.72896 336 336 336 185.27104 0 336-150.72896 336-336C858.60096 197.4976 707.87072 46.76864 522.60096 46.76864z"  horiz-adv-x="1024" />

    
    <glyph glyph-name="jifenqianbi1" unicode="&#58884;" d="M133.76 820.736c-39.04-22.4-58.624-46.656-58.624-72.832v-72.768c0-26.176 19.584-50.496 58.624-72.832 39.04-22.464 92.16-40.128 159.232-53.248C360.128 536.064 433.152 529.6 512 529.6c78.848 0 151.808 6.592 218.944 19.648 67.072 13.056 120.192 30.784 159.232 53.184 38.912 22.4 58.56 46.656 58.56 72.832v72.704c0 26.176-19.648 50.432-58.56 72.832-39.04 22.336-92.16 40.064-159.232 53.184C663.808 886.976 590.848 893.504 512 893.504c-78.848 0-151.872-6.528-219.008-19.584C225.984 860.8 172.864 843.072 133.76 820.736M75.264 335.104v-96.768c0-26.112 19.584-50.368 58.624-72.832 39.04-22.464 92.16-40 159.232-53.12 67.2-13.056 140.096-19.712 219.008-19.712 78.72 0 151.808 6.656 218.944 19.712 67.072 13.056 120.192 30.656 159.168 53.12s58.624 46.656 58.624 72.832v96.768c-45.056-31.872-106.752-56-184.896-72.256C685.824 246.656 601.856 238.4 512 238.4s-173.824 8.256-251.968 24.512c-78.08 16.192-139.648 40.32-184.768 72.192m0-218.496v-96.64c0-26.24 19.584-50.496 58.624-72.96 39.04-22.336 92.16-40 159.232-53.12 67.008-12.928 140.032-19.52 218.88-19.52 78.848 0 151.808 6.592 218.944 19.712 67.072 13.056 120.192 30.72 159.232 53.12 38.912 22.4 58.56 46.656 58.56 72.896v96.768c-45.056-31.872-106.88-55.936-184.896-72.384-78.08-16.384-161.984-24.512-251.904-24.512-89.856 0-173.824 8.128-251.968 24.512-78.016 16.384-139.584 40.32-184.704 72.128m0 436.864v-96.704c0-26.176 19.584-50.432 58.624-72.768 39.04-22.4 92.16-40.064 159.232-53.184 67.008-13.056 140.032-19.712 218.88-19.712 78.848 0 151.808 6.656 218.944 19.712C798.016 343.872 851.136 361.6 890.176 384c38.912 22.336 58.56 46.656 58.56 72.768v96.704c-45.056-31.872-106.88-55.936-184.768-72.192-78.144-16.32-162.112-24.512-251.968-24.512s-173.824 8.128-251.968 24.448c-78.08 16.256-139.648 40.384-184.768 72.256"  horiz-adv-x="1024" />

    
    <glyph glyph-name="tuite1" unicode="&#59109;" d="M1023.975952 701.055053c-37.679158-16.679891-78.102822-27.991518-120.592542-33.05279 43.367717 25.931602 76.668147 67.167772 92.285846 116.151393-40.551578-24.050766-85.536119-41.484833-133.394103-50.980091-38.304398 40.800241-92.849688 66.355267-153.272849 66.355267-116.02348 0-210.06225-94.039793-210.06225-210.004945 0-16.430204 1.874697-32.489972 5.438872-47.857984-174.508499 8.810666-329.278445 92.40762-432.870802 219.500203C53.388443 730.108762 43.074539 693.99731 43.074539 655.571139c0-72.855308 32.520671-137.149637 88.880283-174.821631-34.428114 1.119497-99.69049 10.556427-99.69049 26.303063 0-0.876973 0-1.689479 0-2.622734 0-101.723799 77.008908-186.632631 173.045171-205.942419-17.619286-4.811586-33.908274-7.370875-53.090149-7.370875-13.563924 0-25.546839 1.375324-38.419008 3.812839 26.744107-83.476203 104.847953-144.149051 196.757223-145.895835-71.850421-56.297191-162.17152-89.912799-260.573667-89.912799-17.000186 0-33.537837 1.062192-49.973158 2.936889 92.976578-59.547211 203.388247-94.346785 322.041624-94.346785 386.323673 0 597.605703 320.032874 597.605703 597.570911 0 9.123798-0.167822 18.183128-0.602727 27.179013 41.050951 29.616528 76.606749 66.611094 104.785531 108.723214L1023.975952 701.055053z"  horiz-adv-x="1024" />

    
    <glyph glyph-name="tuijian" unicode="&#58930;" d="M942.8 462.1c-19.5 31.4-53.3 51-88.1 52l-215.2 1c14.4 41.4 21.6 84.6 21.6 128.3 0 21.7-1.9 44-6 67.9l-4 17.3C639.7 778.3 596.1 813 545 813c-60.1 0-108.9-48.9-108.9-109 0-3.5 0.1-6.9 0.5-9.8-3-106.6-131.3-216.6-174.9-216.6h-0.1l-159.9-0.1c-20.9 0-37.9-17.1-37.9-38l-0.4-447.4c0-21.2 18.4-36.7 41.4-37.3l138.6 0.3 5.3-1 4.7 0.6 527.5-0.2c18.6 1.3 36.5 7 52 16.9 16.8 10.8 30.4 26 36.5 39.4l6.5 10.7c36.3 86.5 80.7 351.5 82.5 362.7l0.7 10.7c1.7 24.2-3.9 47.3-16.3 67.2z m-814.4-49.4l86.2 0.1v-393.3l-86.6-0.3 0.4 393.5z m689.8-361.9l-4.1-6.5c-3.7-7.4-9.3-13.7-16.2-18.1-6.3-4-13.7-6.4-19.3-6.8l-499.4 0.2V416.3c85.3 16.6 218.2 146.9 221.8 281.3l-0.4 6.6c0 24.4 19.8 44.3 44.3 44.3 20.8 0 38.5-14.1 43.1-34.3l3.6-15.4c3.2-18.6 4.7-37.1 4.7-55.2 0-36.7-6.1-73-18.3-107.7l-29.7-85.3 294.4-0.1 7-0.7c15.6-0.6 29.9-8.8 38.1-22 5.1-8.2 7.4-17.8 6.7-32.7-0.4-2.5-44.9-268.6-76.3-344.3z"  horiz-adv-x="1024" />

    
    <glyph glyph-name="tuite_twitter" unicode="&#58997;" d="M1024 384c0 282.763636-229.236364 512-512 512S0 666.763636 0 384s229.236364-512 512-512 512 229.236364 512 512zM236.311273 202.053818a218.391273 218.391273 0 0 1 167.470545 49.431273c-49.524364 1.163636-91.275636 36.165818-105.658182 84.200727a107.101091 107.101091 0 0 1 51.060364 1.722182c-51.758545 11.450182-90.763636 60.555636-90.763636 119.063273V458.007273c15.266909-9.216 32.674909-14.801455 51.246545-15.639273-30.301091 21.922909-50.269091 59.159273-50.269091 101.050182 0 22.155636 5.585455 42.821818 15.313455 60.509091 55.808-73.774545 139.170909-122.740364 233.146182-128.837818a125.998545 125.998545 0 0 0-2.932364 27.322181c0 66.141091 50.641455 118.923636 113.105454 117.899637a112.546909 112.546909 0 0 0 82.571637-38.958546 216.436364 216.436364 0 0 1 71.819636 27.694546 115.898182 115.898182 0 0 0-49.757091-64.977455 215.505455 215.505455 0 0 1 64.977455 17.780364c-15.173818-23.598545-34.350545-44.218182-56.459637-60.695273 0.232727-5.12 0.325818-10.24 0.325819-15.36 0-157.044364-113.803636-338.152727-321.861819-338.059636a304.593455 304.593455 0 0 0-173.335272 54.318545z"  horiz-adv-x="1024" />

    
    <glyph glyph-name="level-2" unicode="&#58886;" d="M1024 67.399c0 0-101.3-20.201-203.801-41.1-68.5-75.9-136.5-151.5-136.5-151.5l-146.8 249.001c-8.3-0.4-16.5-1.2-25.001-1.2s-16.5 0.8-25.001 1.2l-146.601-249.001c0 0-68.1 75.6-136.5 151.5-102.7 20.9-203.799 41.1-203.799 41.1l159.5 270.999c-25.7 51.3-40.5 108.4-40.5 169.5 0 212.601 175.9 385.3 392.899 385.3 217.2 0 393.1-172.7 393.1-385.3 0-61.1-14.9-118.3-40.5-169.5l159.5-270.999zM691.1-9.7c0 0 49.2 46.4 95.401 91.1 65.5 18.601 131.6 37.399 131.6 37.399l-92.9 157.401c-53.3-69.3-130-120.201-218.8-141.801l84.7-144.1zM105.9 118.7c0 0 66.1-18.8 131.6-37.401 46.201-44.601 95.2-91.1 95.2-91.1l84.8 144.1c-88.7 21.5-165.5 72.5-219.001 141.801l-92.601-157.401zM511.9 830c-176.5 0-319.5-142.7-319.5-318.5 0-176.001 142.999-318.7 319.5-318.7 176.5 0 319.5 142.7 319.5 318.7 0 175.801-143.001 318.5-319.5 318.5v0zM511.9 288.4c-123.5 0-223.9 99.6-223.9 222.8s100.3 222.8 223.9 222.8c123.7 0 223.9-99.7 223.9-222.8s-100.1-222.8-223.9-222.8v0zM511.9 670.4c-88.3 0-159.801-71.3-159.801-159.2s71.401-159.2 159.801-159.2c88.3 0 160 71.3 160 159.2 0 88-71.7 159.2-160 159.2v0z"  horiz-adv-x="1024" />

    
    <glyph glyph-name="level-2-copy-copy-copy" unicode="&#58887;" d="M1024 67.399c0 0-101.3-20.201-203.801-41.1-68.5-75.9-136.5-151.5-136.5-151.5l-146.8 249.001c-8.3-0.4-16.5-1.2-25.001-1.2s-16.5 0.8-25.001 1.2l-146.601-249.001c0 0-68.1 75.6-136.5 151.5-102.7 20.9-203.799 41.1-203.799 41.1l159.5 270.999c-25.7 51.3-40.5 108.4-40.5 169.5 0 212.601 175.9 385.3 392.899 385.3 217.2 0 393.1-172.7 393.1-385.3 0-61.1-14.9-118.3-40.5-169.5l159.5-270.999zM691.1-9.7c0 0 49.2 46.4 95.401 91.1 65.5 18.601 131.6 37.399 131.6 37.399l-92.9 157.401c-53.3-69.3-130-120.201-218.8-141.801l84.7-144.1zM105.9 118.7c0 0 66.1-18.8 131.6-37.401 46.201-44.601 95.2-91.1 95.2-91.1l84.8 144.1c-88.7 21.5-165.5 72.5-219.001 141.801l-92.601-157.401zM511.9 830c-176.5 0-319.5-142.7-319.5-318.5 0-176.001 142.999-318.7 319.5-318.7 176.5 0 319.5 142.7 319.5 318.7 0 175.801-143.001 318.5-319.5 318.5v0zM511.9 288.4c-123.5 0-223.9 99.6-223.9 222.8s100.3 222.8 223.9 222.8c123.7 0 223.9-99.7 223.9-222.8s-100.1-222.8-223.9-222.8v0zM511.9 670.4c-88.3 0-159.801-71.3-159.801-159.2s71.401-159.2 159.801-159.2c88.3 0 160 71.3 160 159.2 0 88-71.7 159.2-160 159.2v0z"  horiz-adv-x="1024" />

    
    <glyph glyph-name="cha1" unicode="&#59019;" d="M248 668.6zM807.6 659.7l-38.9 39-255.9-255.2-255.2 255.9-39.1-38.9 255.3-255.9-256-255.3 39-39 255.8 255.2 255.2-255.9 39.1 38.9-255.2 256 255.9 255.2z"  horiz-adv-x="1024" />

    
    <glyph glyph-name="icon-test" unicode="&#58903;" d="M707.1 390.3H547.9V646.2c0 1.1-0.9 2-2 2h-60.5c-1.1 0-2-0.9-2-2v-318.3c0-1.1 0.9-2 2-2H707c1.1 0 2 0.9 2 2v60.5c0.1 1-0.8 1.9-1.9 1.9zM804.2 60.5C882.4 136.7 931 243 931 360.5c0 95-31.8 182.7-85.3 253.1 23.6 24 36.9 56.1 36.9 90.3 0 71.1-57.8 128.9-128.9 128.9-50.4 0-94.9-28.8-116-72.6-39.7 12.5-81.9 19.3-125.7 19.3s-86-6.8-125.7-19.3c-21.1 43.5-65.6 72.6-116 72.6-71.1 0-128.9-57.8-128.9-128.9 0-34.3 13.6-66.6 36.9-90.3C124.8 543.3 93 455.5 93 360.5c0-110.5 43-211.1 113.1-286.1l-93.2-93.2c-0.8-0.8-0.8-2.1 0-2.8l42.8-42.8c0.8-0.8 2.1-0.8 2.8 0l95.2 95.2c71.2-55.9 161-89.3 258.3-89.3 90.3 0 174 28.7 242.5 77.5l83.3-83.3c0.8-0.8 2.1-0.8 2.8 0l42.8 42.8c0.8 0.8 0.8 2.1 0 2.8l-79.2 79.2z m-50.5 707.9c35.5 0 64.5-28.9 64.5-64.5 0-15.6-5.6-30.3-15.5-41.9-30.8 29.7-66.2 54.8-104.9 74 11.2 19.7 32.3 32.4 55.9 32.4z m-483.4 0c23.7 0 44.7-12.8 55.9-32.3-38.7-19.2-74.1-44.3-104.9-74-9.8 11.5-15.5 26.3-15.5 41.9 0 35.5 28.9 64.4 64.5 64.4zM157.5 360.5C157.5 556 316.5 715 512 715s354.5-159 354.5-354.5S707.5 6 512 6 157.5 165.1 157.5 360.5z"  horiz-adv-x="1024" />

    
    <glyph glyph-name="quxiao4" unicode="&#58943;" d="M606.421998 384.001023l245.095137 245.103324c24.847921 24.830525 24.847921 65.096601 0.02149 89.944522l-4.488221 4.488221c-24.846898 24.828478-65.116043 24.828478-89.944522-0.02149l-245.1023-245.094114-245.105371 245.114581c-24.828478 24.828478-65.095577 24.828478-89.944522 0l-4.487197-4.488221c-24.828478-24.847921-24.828478-65.117067 0-89.944522l245.11151-245.103324-245.112534-245.103324c-24.828478-24.828478-24.828478-65.095577 0-89.944522l4.487198-4.488221c24.848944-24.829502 65.116043-24.829502 89.944522 0l245.10537 245.112534 245.102301-245.094114c24.828478-24.847921 65.096601-24.847921 89.944522-0.020466l4.488221 4.488221c24.828478 24.846898 24.828478 65.116043-0.02149 89.944521L606.421998 384.001023z"  horiz-adv-x="1024" />

    
    <glyph glyph-name="modify" unicode="&#59031;" d="M456.234417 217.322863l357.12056 357.929996-118.401643 118.629841-357.088838-357.962742zM890.258485 645.640975c39.682791 39.71656 21.722744 66.3655-17.896602 106.179275-39.618323 39.683814-65.101717 56.511062-104.85 16.794501l-32.486902-34.852786 120.218012-120.866788 35.015492 32.745798zM237.391177 117.075695l181.656293 59.461253-120.120798 120.346949zM903.941112 497.118314V-7.9406H120.025119V776.038838h503.989559V832.16002H64.033897v-896.319016h895.931183V497.118314z"  horiz-adv-x="1024" />

    
    <glyph glyph-name="modify1" unicode="&#59042;" d="M863.47 479.584c-12.181 0-22.111-9.645-22.565-21.719h-0.141v-368.212c0-19.393-15.623-35.032-35.032-35.032h-592.293c-19.395 0-35.034 15.623-35.034 35.032v592.293c0 19.397 15.625 35.034 35.034 35.034h382.013c0.56-0.213 1.147-0.324 1.767-0.324 12.472 0 22.581 10.109 22.581 22.581 0 12.322-9.871 22.339-22.136 22.575v0.328h-384.225c-44.397 0-80.194-35.904-80.194-80.194v-592.294c0-44.395 35.904-80.194 80.194-80.194h592.294c44.395 0 80.194 35.904 80.194 80.194v366.238c0.082 0.359 0.125 0.731 0.125 1.114-0.001 12.47-10.112 22.58-22.582 22.58zM351.003 343.965c-0.51-0.649-1.022-1.333-1.253-2.154l-39.48-144.319c-2.303-8.402 0.057-17.457 6.295-23.838 4.667-4.547 10.815-7.044 17.363-7.044 0.026-0 0.056-0 0.086-0 2.267 0 4.463 0.3 6.552 0.863s143.888 38.841 144.062 38.841c1.652 0 3.274 0.601 4.498 1.848l384.315 383.117c11.416 11.395 17.678 26.919 17.678 43.809 0 19.139-8.142 38.269-22.401 52.446l-36.294 36.247c-14.236 14.212-33.449 22.345-52.637 22.345-16.935 0-32.506-6.24-43.95-17.61-0.001 0-384.55-384.124-384.835-384.551zM418.206 347.969l281.079 280.314 71.624-75.453-282.065-281.18-70.638 76.319zM385.962 316.321l0.244-0.264-2.743-2.737-1.405-1.343c32.996 36.053 59.266 78.894 76.422 126.109zM388.767 313.289l63.518-68.627-88.907-24.177 25.389 92.804zM767.727 696.54c2.806 2.786 6.895 4.426 12.060 4.426 7.096 0 14.876-3.3 20.726-9.143l36.294-36.243c5.888-5.853 9.153-13.502 9.153-20.491 0-5.055-1.609-9.040-4.422-11.849l-38.639-38.518-71.63 75.461 36.458 36.357z"  horiz-adv-x="1024" />

    
    <glyph glyph-name="tuite2" unicode="&#59047;" d="M1016.695467 699.050667a416.8704 416.8704 0 0 0-119.7056-32.768 208.554667 208.554667 0 0 1 91.613866 115.268266c-40.277333-23.893333-84.8896-41.198933-132.4032-50.619733a208.4864 208.4864 0 0 1-355.2256-190.088533A592.008533 592.008533 0 0 0 71.338667 758.749867a207.36 207.36 0 0 1-28.228267-104.789334c0-72.328533 32.290133-136.123733 88.234667-173.533866-34.167467 1.1264-98.986667 10.478933-98.986667 26.112v-2.594134c0-100.9664 76.458667-185.2416 171.793067-204.3904-17.5104-4.778667-33.655467-7.338667-52.701867-7.338666-13.448533 0-25.361067 1.365333-38.126933 3.7888A209.442133 209.442133 0 0 1 308.599467 151.210667a417.655467 417.655467 0 0 0-258.628267-89.258667c-16.861867 0-33.28 1.058133-49.595733 2.935467a590.6432 590.6432 0 0 1 319.624533-93.661867c383.453867 0 593.169067 317.6448 593.169067 593.1008 0 9.079467-0.170667 18.090667-0.6144 26.965333a423.8336 423.8336 0 0 1 104.004266 107.9296l0.136534-0.136533z"  horiz-adv-x="1024" />

    
    <glyph glyph-name="youhuiquan" unicode="&#58946;" d="M945.556417 47.723164H76.236312c-14.128789 0-25.582655 11.452843-25.582655 25.582655V256.240221c0 14.128789 11.453866 25.582655 25.582655 25.582655 48.734958 0 88.382956 42.926672 88.382956 95.692433 0 52.763714-39.649022 95.690386-88.382956 95.690386-14.128789 0-25.582655 11.453866-25.582655 25.582654v181.53452c0 14.128789 11.453866 25.582655 25.582655 25.582655H945.556417c14.128789 0 25.582655-11.453866 25.582655-25.582655v-182.306092c0-13.787004-10.92584-25.094538-24.704659-25.567306-22.706141-0.779759-44.027749-10.880815-60.038397-28.440749-16.432251-18.022469-25.480324-41.885969-25.480325-67.193355s9.049097-49.170886 25.480325-67.193355c16.010649-17.559934 37.331233-27.66099 60.038397-28.440749 13.778818-0.473791 24.704658-11.781324 24.704659-25.568329v-182.307115c0-14.129812-11.453866-25.582655-25.582655-25.582655z m-843.73745 51.16531H919.973762V233.202529c-27.077705 6.066159-51.830459 20.497846-71.387887 41.947367-25.043373 27.469632-38.835494 63.573921-38.835494 101.665471 0 38.090527 13.793144 74.195839 38.835494 101.665471 19.556405 21.448498 44.310182 35.881209 71.387887 41.947368V654.740214H101.818967v-132.843564c64.773236-12.679787 113.965611-72.598458 113.965611-144.382365s-49.192376-131.704624-113.965611-144.384411v-134.2414zM489.478054 192.234465c2.925632 17.064654 3.900843 32.66598 3.900843 54.605665v47.778167h-71.669296c-21.939685 0-34.128285-0.975211-50.704822-3.89982v36.5658c16.576537-2.925632 28.765137-3.900843 50.704822-3.900843h71.669296v23.401989l-19.014052 28.765138h-52.655244c-21.939685 0-34.128285-0.975211-50.704822-3.900844v36.566824c16.576537-2.925632 28.765137-3.900843 50.704822-3.900843h34.128285l-75.569116 116.034736c-14.137998 21.939685-21.939685 33.153074-29.252231 42.416042h52.167126c3.900843-11.213389 8.287757-20.47738 23.890107-44.853557l85.320201-137.487328 84.833107 137.487328c14.139022 22.914896 19.989263 33.640168 23.401989 44.853557h52.654221c-6.825452-8.287757-17.063631-22.426779-30.227442-42.416042l-75.082022-116.034736h34.127261c21.939685 0 34.615379 0.975211 51.19294 3.900843v-36.566824c-16.57756 2.925632-29.740348 3.900843-51.19294 3.900844h-52.167126l-19.50217-29.252231v-22.913873h71.668273c21.452591 0 34.127262 0.975211 50.704822 3.900844v-36.565801c-16.57756 2.924609-29.740348 3.89982-50.704822 3.89982H530.431791v-47.778166c0-24.3772 0.975211-37.053917 3.900843-54.605666h-44.85458z"  horiz-adv-x="1024" />

    
    <glyph glyph-name="riqi1" unicode="&#58881;" d="M859.666773-128H164.332847A127.203556 127.203556 0 0 0 37.925736 0.037926V704.018963a127.203556 127.203556 0 0 0 126.407111 128h126.445037V864.028444a31.592296 31.592296 0 1 0 63.222519 0v-32.009481h316.036741V864.028444a31.592296 31.592296 0 1 0 63.222518 0v-32.009481h126.407111A127.203556 127.203556 0 0 0 986.073884 704.018963v-703.981037A127.203556 127.203556 0 0 0 859.666773-128z m63.184593 832.018963a63.639704 63.639704 0 0 1-63.222519 64.018963h-126.407111v-32.009482a31.592296 31.592296 0 1 0-63.222518 0v32.009482H353.962477v-32.009482a31.592296 31.592296 0 1 0-63.222518 0v32.009482H164.332847a63.639704 63.639704 0 0 1-63.184592-64.018963v-63.981037h821.703111V704.018963z m0-128H101.148255v-575.981037a63.601778 63.601778 0 0 1 63.222518-64.018963h695.296a63.601778 63.601778 0 0 1 63.222519 64.018963V576.056889zM796.444255 0.037926h-63.222519a63.601778 63.601778 0 0 0-63.222518 63.981037v64.018963a63.601778 63.601778 0 0 0 63.222518 64.018963H796.444255a63.601778 63.601778 0 0 0 63.222518-64.018963v-64.018963A63.601778 63.601778 0 0 0 796.444255 0.037926z m0 128h-63.222519v-64.018963H796.444255v64.018963z m0 128.037926h-63.222519a63.601778 63.601778 0 0 0-63.222518 63.981037V384a63.601778 63.601778 0 0 0 63.222518 63.981037H796.444255a63.601778 63.601778 0 0 0 63.222518-63.981037v-64.018963A63.601778 63.601778 0 0 0 796.444255 256.075852z m0 127.924148h-63.222519v-64.018963H796.444255V384z m-252.852148-383.962074h-63.184593A63.601778 63.601778 0 0 0 417.184996 64.018963v64.018963a63.601778 63.601778 0 0 0 63.222518 64.018963h63.222519A63.601778 63.601778 0 0 0 606.814625 128.037926v-64.018963a63.601778 63.601778 0 0 0-63.222518-63.981037z m0 128h-63.184593v-64.018963h63.222519v64.018963z m0 128.037926h-63.184593A63.601778 63.601778 0 0 0 417.184996 320.018963V384a63.601778 63.601778 0 0 0 63.222518 63.981037h63.222519A63.601778 63.601778 0 0 0 606.814625 384v-64.018963a63.601778 63.601778 0 0 0-63.222518-63.905185z m0 128h-63.184593v-64.018963h63.222519V384zM290.777884 0.037926H227.555366a63.601778 63.601778 0 0 0-63.222519 63.981037v64.018963A63.601778 63.601778 0 0 0 227.555366 192.056889h63.222518a63.601778 63.601778 0 0 0 63.222519-64.018963v-64.018963a63.601778 63.601778 0 0 0-63.222519-63.981037z m0 128H227.555366v-64.018963h63.222518v64.018963z m0 128.037926H227.555366a63.601778 63.601778 0 0 0-63.222519 63.981037V384A63.601778 63.601778 0 0 0 227.555366 448.018963h63.222518A63.601778 63.601778 0 0 0 353.962477 384v-64.018963a63.601778 63.601778 0 0 0-63.184593-63.905185z m0 128H227.555366v-64.018963h63.222518V384z"  horiz-adv-x="1024" />

    
    <glyph glyph-name="cunqian" unicode="&#58974;" d="M833.536-109.568H198.656c-70.117376 0-126.976 59.056128-126.976 131.8912v131.8912h63.488v-131.8912c0-36.415488 28.422144-65.9456 63.488-65.9456h634.88c35.06176 0 63.488 29.528064 63.488 65.9456V747.7248c0 36.425728-28.434432 65.9456-63.488 65.9456H198.656c-35.065856 0-63.488-29.52192-63.488-65.9456v-131.8912H71.68V747.7248C71.68 820.559872 128.534528 879.616 198.656 879.616h634.88c70.12352 0 126.976-59.056128 126.976-131.8912v-725.4016c0-72.835072-56.850432-131.8912-126.976-131.8912zM171.165696 582.404096a27.058176 27.058176 0 0 0 0 39.1168 29.2864 29.2864 0 0 0 40.454144 0l197.2224-190.818304a31.143936 31.143936 0 0 0 0-41.89184l-197.234688-190.818304a29.304832 29.304832 0 0 0-40.448 0 27.068416 27.068416 0 0 0 0 39.1168l149.880832 145.012736H100.25984a27.670528 27.670528 0 1 0 0 55.310336h220.786688l-149.880832 144.971776zM667.467776 88.2688h-44.353536v60.123136q-122.228736 10.082304-156.403712 117.006336l70.641664 16.246784q19.058688-68.585472 85.762048-73.7792v128.382976q-87.072768 19.808256-113.36704 50.208768t-26.281984 72.640512q0 109.508608 139.640832 126.414848V632.32h44.353536v-46.7968q102.1952-12.99456 129.130496-99.766272l-66.68288-13.983744q-17.082368 50.038784-62.429184 53.94432v-113.41824q64.401408-18.204672 86.740992-27.953152t40.2432-38.029312q17.903616-28.2624 17.907712-66.297856 0-53.952512-37.128192-89.7024t-107.773952-41.930752V88.2688z m-44.353536 437.4528q-28.592128-0.323584-47.808512-14.1312t-19.22048-40.790016q0-45.504512 67.028992-54.272V525.7216zM667.467776 207.872q30.889984 0.3072 51.748864 17.870848t20.86912 45.821952q0 47.450112-72.617984 60.770304V207.872z"  horiz-adv-x="1024" />

    
    <glyph glyph-name="quqian" unicode="&#58975;" d="M833.536-109.568H198.656c-70.121472 0-126.976 59.056128-126.976 131.8912v131.8912h63.488v-131.8912c0-36.415488 28.428288-65.9456 63.488-65.9456h634.88c35.055616 0 63.488 29.528064 63.488 65.9456V747.7248c0 36.425728-28.434432 65.9456-63.488 65.9456H198.656c-35.065856 0-63.488-29.52192-63.488-65.9456v-131.8912H71.68V747.7248C71.68 820.559872 128.530432 879.616 198.656 879.616h634.88c70.115328 0 126.976-59.056128 126.976-131.8912v-725.4016c0-72.835072-56.856576-131.8912-126.976-131.8912zM317.8496 582.404096a27.05408 27.05408 0 0 1 0 39.1168 29.2864 29.2864 0 0 1-40.448 0L80.160768 430.6944a31.16032 31.16032 0 0 1 0-41.89184l197.238784-190.818304a29.298688 29.298688 0 0 1 40.443904 0 27.06432 27.06432 0 0 1 0 39.1168l-149.880832 145.012736H388.75136a27.670528 27.670528 0 1 1 0 55.310336H167.962624l149.886976 144.979968zM667.469824 88.2688h-44.353536v60.123136q-122.23488 10.082304-156.401664 117.006336l70.641664 16.246784q19.0464-68.585472 85.76-73.7792v128.382976q-87.078912 19.808256-113.369088 50.208768t-26.27584 72.644608q0 109.508608 139.644928 126.414848V632.32h44.353536v-46.7968q102.1952-12.99456 129.130496-99.766272l-66.69312-13.983744q-17.096704 50.038784-62.431232 53.94432v-113.41824q64.401408-18.204672 86.74304-27.953152t40.247296-38.029312q17.903616-28.2624 17.905664-66.297856 0-53.952512-37.132288-89.7024t-107.769856-41.930752V88.2688z m-44.353536 437.4528q-28.59008-0.323584-47.812608-14.1312t-19.22048-40.790016q0-45.504512 67.033088-54.272V525.7216zM667.469824 207.872q30.881792 0.3072 51.750912 17.870848t20.867072 45.821952q0 47.450112-72.617984 60.770304V207.872z"  horiz-adv-x="1024" />

    
    <glyph glyph-name="facebook" unicode="&#58981;" d="M750.592 560.489412l-18.612706-176.489412H590.908235V-128H379.000471V384H273.408V560.489412h105.592471V666.744471C379.000471 810.285176 438.693647 896 608.376471 896h141.010823v-176.489412h-88.244706c-65.837176 0-70.234353-24.877176-70.234353-70.836706V560.489412h159.683765z"  horiz-adv-x="1024" />

    
    <glyph glyph-name="icon_huaban" unicode="&#58892;" d="M128 160c-0.055-0-0.121-0.001-0.186-0.001-17.673 0-32 14.327-32 32 0 8.883 3.619 16.921 9.464 22.718l384.002 384.002c5.784 5.751 13.757 9.305 22.56 9.305s16.776-3.555 22.562-9.307l383.998-383.998c4.783-5.559 7.695-12.847 7.695-20.815 0-17.673-14.327-32-32-32-7.968 0-15.256 2.912-20.857 7.73l-361.238 361.565-361.92-362.24c-5.731-5.53-13.538-8.943-22.142-8.96z"  horiz-adv-x="1024" />

    
    <glyph glyph-name="youhuiquan1" unicode="&#58894;" d="M918.715733-24.4736L106.325333-25.6a103.543467 103.543467 0 0 0-41.1648 8.430933 103.594667 103.594667 0 0 0-33.553066 22.6816 106.461867 106.461867 0 0 0-22.5792 33.8432 105.386667 105.386667 0 0 0-8.362667 41.301334L0.477867 251.357867c0 16.725333 13.4656 30.344533 30.1056 30.344533a83.797333 83.797333 0 0 1 59.835733 25.070933 85.504 85.504 0 0 1 24.7296 60.672 85.367467 85.367467 0 0 1-24.9344 60.603734 83.182933 83.182933 0 0 1-59.818667 24.866133 30.2592 30.2592 0 0 0-30.190933 30.327467L0 653.892267c0 14.318933 2.7648 28.228267 8.226133 41.3696A107.4688 107.4688 0 0 0 30.72 729.105067a106.103467 106.103467 0 0 0 33.553067 22.818133 103.048533 103.048533 0 0 0 41.1136 8.430933l812.3904 1.1264c14.2848 0 28.091733-2.816 41.1648-8.430933a104.260267 104.260267 0 0 0 33.553066-22.749867 106.837333 106.837333 0 0 0 30.941867-75.076266l0.187733-170.717867c0-16.708267-13.4656-30.2592-30.122666-30.2592a83.370667 83.370667 0 0 1-59.767467-25.1392 85.469867 85.469867 0 0 1-24.7808-60.672 85.333333 85.333333 0 0 1 24.9344-60.535467 83.2512 83.2512 0 0 1 59.818667-25.002666c16.657067 0 30.190933-13.550933 30.190933-30.276267l0.2048-170.632533c0-14.336-2.7648-28.228267-8.226133-41.3696a107.178667 107.178667 0 0 0-22.493867-33.8432 104.721067 104.721067 0 0 0-33.553067-22.818134 104.5504 104.5504 0 0 0-41.1136-8.430933zM60.7744 224.324267l0.2048-143.530667c0-25.2928 20.2752-45.858133 45.277867-45.789867l812.3904 1.058134c24.9344 0 45.2096 20.565333 45.141333 45.858133l-0.136533 143.530667a147.0464 147.0464 0 0 0-26.333867 8.362666 143.701333 143.701333 0 0 0-46.165333 31.317334 147.490133 147.490133 0 0 0-31.061334 46.353066 147.114667 147.114667 0 0 0-11.451733 56.8832 145.92 145.92 0 0 0 11.332267 56.866134 145.408 145.408 0 0 0 30.993066 46.4896 144.401067 144.401067 0 0 0 46.011734 31.470933 139.861333 139.861333 0 0 0 26.350933 8.3456l-0.2048 143.547733c0 25.275733-20.343467 45.858133-45.277867 45.858134l-812.3904-1.1264c-24.9344 0-45.2096-20.5824-45.1584-45.858134l0.136534-143.616a144.3328 144.3328 0 0 0 72.4992-39.5264 147.712 147.712 0 0 0 31.061333-46.4896 147.336533 147.336533 0 0 0 0.136533-113.7664 146.0736 146.0736 0 0 0-30.993066-46.421333 143.445333 143.445333 0 0 0-72.362667-39.816533z m606.8224 311.517866l-108.407467-131.669333 118.442667 0.136533 0.068267-30.190933-139.8784-0.2048 0.068266-74.4448 139.8784 0.2048 0.068267-30.190933-139.8784-0.136534 0.136533-97.962666-49.527466-0.136534-0.136534 98.030934-139.264-0.221867-0.068266 30.208 139.332266 0.136533-0.136533 74.427734-139.264-0.136534-0.068267 30.208 117.9136 0.2048-108.7488 131.310934 56.251734 0.085333 98.645333-126.6176 98.304 126.890667 56.2688 0.068266z"  horiz-adv-x="1024" />

    
    <glyph glyph-name="date1" unicode="&#58965;" d="M915.392 805.184H766.72v62.08a28.8 28.8 0 0 1-57.472 0v-62.08H314.752V866.752a28.736 28.736 0 1 1-57.536 0v-61.568H108.544C48.704 805.184 0 756.544 0 696.768v-716.288C0-79.36 48.704-128 108.544-128h806.784c59.904 0 108.672 48.64 108.672 108.416V696.768c0 59.776-48.768 108.416-108.608 108.416z m44.736-824.768a44.8 44.8 0 0 0-44.736-44.672H108.544a44.736 44.736 0 0 0-44.672 44.672V494.016h896.256v-513.6z m0 571.008H63.872V696.768c0 24.64 20.032 44.672 44.672 44.672h148.672v-44.736a28.8 28.8 0 0 1 57.536 0v44.736h394.496v-44.224a28.736 28.736 0 0 1 57.472 0v44.224h148.608a44.8 44.8 0 0 0 44.736-44.672v-145.344zM256 259.392h64a16 16 0 0 1 16 16v64a16 16 0 0 1-16 16H256a16 16 0 0 1-16-16v-64c0-8.832 7.168-16 16-16zM478.976 259.392h65.984a15.04 15.04 0 0 1 14.976 15.04v65.92a15.04 15.04 0 0 1-14.976 15.04H478.976a15.04 15.04 0 0 1-15.04-15.04v-65.92c0-8.32 6.72-15.04 15.04-15.04zM705.024 259.392h62.016a17.088 17.088 0 0 1 17.024 17.088v61.888a17.024 17.024 0 0 1-17.024 17.024h-62.016a17.088 17.088 0 0 1-17.024-17.024v-61.952c0-9.408 7.616-17.024 17.024-17.024zM254.016 57.408h67.968a14.016 14.016 0 0 1 14.016 14.016v67.968a14.016 14.016 0 0 1-14.016 14.016H254.016a14.016 14.016 0 0 1-14.016-14.016v-67.968c0-7.744 6.272-14.016 14.016-14.016zM546.944 153.344H476.992a12.992 12.992 0 0 1-12.992-12.992V70.4c0-7.232 5.824-12.992 12.992-12.992h69.952c7.232 0 13.056 5.76 13.056 12.992v69.952a12.928 12.928 0 0 1-13.056 12.992zM702.016 57.408h68.032a14.016 14.016 0 0 1 14.016 14.016v67.968a14.016 14.016 0 0 1-14.016 14.016h-68.032a14.016 14.016 0 0 1-14.016-14.016v-67.968c0-7.744 6.272-14.016 14.016-14.016z"  horiz-adv-x="1024" />

    
    <glyph glyph-name="facebook1" unicode="&#983125;" d="M628.158872-115.904779a511.72088 511.72088 0 1 1-152.213702-12.095221V228.902053H409.700576v134.349991h65.314193v70.896602c0 171.007814 160.587316 153.702344 160.587316 153.702344h103.460658l-1.116482-123.557332h-65.128112c-54.149373 0-44.845357-46.334-44.845357-46.334v-54.707614h109.229147l-21.399236-134.536071h-87.643831z"  horiz-adv-x="1024" />

    
    <glyph glyph-name="biaoqian1" unicode="&#58677;" d="M878.9 420.4L472.8 14h-0.2L141.9 344.9 548 751.3c9.9 1 34.4 2.7 92.5 2.7 100.2 0 233.5-4.9 236.1-6.2 5.1-135.7 7.1-288.8 2.3-327.4z m75.7 328.8c0 42.9-34.9 77.8-76.3 77.8h-0.1c-1.3 0-136 5-237.6 5-117.1 0-127.7-5.7-140.3-18.3L86.7 400c-30.4-30.4-30.3-80 0.2-110.5l330.4-330.6c14.8-14.8 34.4-22.9 55.3-22.9s40.4 8.1 55 22.7L941 372.4c13.8 13.6 26.7 26.5 13.6 376.8zM650.4 490.4c-32.2 0-58.5 26.2-58.5 58.5s26.2 58.5 58.5 58.5 58.5-26.2 58.5-58.5c-0.1-32.3-26.3-58.5-58.5-58.5z m0 195c-75.2 0-136.4-61.2-136.4-136.5s61.2-136.5 136.4-136.5 136.4 61.2 136.4 136.5-61.2 136.5-136.4 136.5z"  horiz-adv-x="1024" />

    
    <glyph glyph-name="xialajiantouxiangyou" unicode="&#59283;" d="M268.69504-128l486.21056 511.80032L268.69504 895.60064z"  horiz-adv-x="1024" />

    
    <glyph glyph-name="icon_templet" unicode="&#58668;" d="M710.26537-8.779636H175.626174c-55.473508 0-100.621753 45.149461-100.621753 100.622969V793.653518c0 55.474725 45.149461 100.621753 100.621753 100.621753h534.639196c55.482023 0 100.621753-45.147029 100.621753-100.621753V91.909014c0-55.539189-45.140947-100.688651-100.621753-100.68865M175.626174 827.194508c-18.517117 0-33.542206-15.025089-33.542206-33.54099V91.909014c0-18.442922 15.025089-33.54099 33.542206-33.54099h534.639196c18.447788 0 33.54099 15.099284 33.54099 33.54099V793.653518c0 18.514685-15.094419 33.54099-33.54099 33.54099H175.626174m0 0zM846.634501-126.276487H315.550583c-18.514685 0-33.54099 15.027521-33.54099 33.542206 0 18.508603 15.025089 33.539774 33.54099 33.539773H846.634501c19.454893 0 35.287612 15.825421 35.287612 35.282748v698.320588c0 18.514685 15.025089 33.538557 33.539774 33.538557s33.54099-15.023872 33.54099-33.538557v-698.254908c0-56.478181-45.954659-102.430408-102.368376-102.430407m0 0zM556.043227 582.924002H287.716524c-18.50982 0-33.539774 15.025089-33.539774 33.54099 0 18.514685 15.023872 33.539774 33.539774 33.539773h268.326703c18.513469 0 33.54099-15.025089 33.540989-33.539773 0-18.513469-15.025089-33.54099-33.540989-33.54099m0 0zM623.125206 381.67563H287.716524c-18.50982 0-33.539774 15.027521-33.539774 33.543422 0 18.517117 15.023872 33.539774 33.539774 33.539774H623.125206c18.513469 0 33.54099-15.023872 33.54099-33.539774 0.001216-18.517117-15.026305-33.543423-33.54099-33.543422m0 0zM623.125206 180.432123H287.716524c-18.50982 0-33.539774 15.028738-33.539774 33.539774 0 18.517117 15.023872 33.542206 33.539774 33.542206H623.125206c18.513469 0 33.54099-15.025089 33.54099-33.542206 0.001216-18.512252-15.026305-33.539774-33.54099-33.539774m0 0z"  horiz-adv-x="1024" />

    
    <glyph glyph-name="quxiao5" unicode="&#59134;" d="M512 837.312C262.656 837.312 58.688 633.344 58.688 384S262.656-69.312 512-69.312 965.312 134.656 965.312 384 761.344 837.312 512 837.312z m0-831.104c-211.52 0-377.792 166.208-377.792 377.792S300.48 761.792 512 761.792 889.792 595.52 889.792 384 723.52 6.208 512 6.208zM670.656 542.656a36.48 36.48 0 0 1-52.864 0L512 436.864 406.208 542.656a36.48 36.48 0 0 1-52.864 0 36.48 36.48 0 0 1 0-52.864L459.136 384 353.344 278.208a36.48 36.48 0 0 1 0-52.864c7.552-7.552 15.104-7.552 30.208-7.552s22.656 0 30.208 7.552L512 331.136l105.792-105.792c7.552-7.552 15.104-7.552 30.208-7.552s22.656 0 30.208 7.552a36.48 36.48 0 0 1 0 52.864L564.864 384l105.792 105.792a36.48 36.48 0 0 1 0 52.864z"  horiz-adv-x="1024" />

    
    <glyph glyph-name="reset" unicode="&#58926;" d="M544 768c-217.6 0-396.8-166.4-416-384H0l160-192 160 192H192c19.2 179.2 166.4 320 352 320 192 0 352-160 352-352S736 0 544 0h-32v-64h32c230.4 0 416 185.6 416 416S774.4 768 544 768z"  horiz-adv-x="1024" />

    
    <glyph glyph-name="icon-" unicode="&#58936;" d="M1027.02898 162.945837L513.51449 676.450094h-0.010233L0 162.945837l71.395931-71.395931 442.118559 442.118559 442.11856-442.118559 71.39593 71.395931z"  horiz-adv-x="1027" />

    
    <glyph glyph-name="quxiao6" unicode="&#58972;" d="M983.751881 184.692197c-25.794431-60.968655-62.704326-115.726781-109.715931-162.728147-47.021845-47.016725-101.769731-83.93174-162.738386-109.721051C648.163159-114.457668 581.106854-127.99488 511.99744-127.99488s-136.165719 13.537212-199.295004 40.237879c-60.973775 25.789311-115.726781 62.704326-162.738386 109.721051-47.016725 47.011605-83.93174 101.759491-109.715931 162.728147C13.537212 247.821481 0 314.872666 0 383.99232c0 69.109414 13.537212 136.155479 40.242999 199.300124 25.789311 60.968655 62.699207 115.731901 109.710811 162.738386 47.021845 47.011605 101.769731 83.93174 162.743507 109.721051C375.831721 882.452548 442.888026 896 511.99744 896s136.165719-13.542332 199.300124-40.242999c60.968655-25.794431 115.721661-62.709446 162.738386-109.721051 47.011605-47.011605 83.9215-101.769731 109.715931-162.738386 26.705786-63.144644 40.242999-130.190709 40.242999-199.300124 0-69.124774-13.542332-136.175959-40.242999-199.305243z m-49.356553 199.300123c0 232.917875-189.490253 422.418368-422.397888 422.418368-232.917875 0-422.403008-189.500492-422.403008-422.418368 0-232.912755 189.485133-422.397888 422.403008-422.397888 232.907635 0 422.397888 189.485133 422.397888 422.397888zM690.208389 117.763891L511.99744 295.9646l-178.221189-178.210949-88.0226 88.02772 178.221189 178.205829-178.210949 178.226309 87.9714 88.03796 0.706557-0.706557 177.545352-177.550472L690.213509 650.241229l88.03796-88.02772-178.236549-178.241669 178.236549-178.195589L690.208389 117.763891z"  horiz-adv-x="1024" />

    
    <glyph glyph-name="huidaodingbu-copy" unicode="&#58639;" d="M941.415 176.614c9.984-10.035 29.517-10.035 39.475 0 4.615 4.664 7.464 11.081 7.464 18.163 0 7.082-2.85 13.499-7.467 18.166l-438.116 441.342c-4.599 4.641-10.975 7.514-18.022 7.514s-13.423-2.873-18.021-7.512l-438.12-441.346c-9.958-10.035-9.957-32.486 0-42.496 9.984-10.061 34.304-10.061 44.237 0l393.933 398.259c4.66 4.656 11.095 7.536 18.204 7.536 6.981 0 13.311-2.777 17.951-7.286l398.484-392.314z"  horiz-adv-x="1024" />

    
    <glyph glyph-name="facebook2" unicode="&#58625;" d="M503.149 852.515c-265.206 0-479.885-214.685-479.885-479.885s214.685-479.885 479.885-479.885c265.206 0 479.885 214.685 479.885 479.885 0 265.206-214.685 479.885-479.885 479.885zM631.931 375.149h-83.312v-300.556h-123.76v300.556h-63.151v103.536h63.151v63.151c0 83.312 35.363 133.841 133.841 133.841h83.312v-103.536h-50.525c-37.866 0-40.39-15.168-40.39-40.39v-50.525h93.426l-12.622-106.081z"  horiz-adv-x="1024" />

    
    <glyph glyph-name="xialajiantouxiangxia" unicode="&#58646;" d="M0 657.49504l511.80032-486.21056L1023.60064 657.49504z"  horiz-adv-x="1024" />

    
    <glyph glyph-name="reset1" unicode="&#58989;" d="M17.297067 509.155556c22.755556 17.066667 51.2 11.377778 62.577777-11.377778l45.511112-62.577778c11.377778 119.466667 62.577778 227.555556 147.911111 307.2 199.111111 199.111111 517.688889 199.111111 716.8 0s199.111111-523.377778 0-722.488889c-96.711111-102.4-227.555556-147.911111-358.4-147.911111s-261.688889 51.2-358.4 147.911111c-17.066667 17.066667-17.066667 45.511111 0 62.577778 17.066667 17.066667 45.511111 17.066667 62.577777 0 159.288889-164.977778 426.666667-164.977778 585.955556 0 159.288889 164.977778 159.288889 432.355556 0 597.333333C762.541511 844.8 495.163733 844.8 335.874844 679.822222 267.608178 611.555556 222.097067 520.533333 216.408178 423.822222l56.888889 62.577778c17.066667 17.066667 45.511111 17.066667 62.577777 0 17.066667-17.066667 17.066667-45.511111 0-62.577778l-136.533333-147.911111c-11.377778-11.377778-22.755556-11.377778-34.133333-11.377778-11.377778 0-22.755556 5.688889-34.133334 17.066667L5.919289 446.577778c-11.377778 17.066667-5.688889 45.511111 11.377778 62.577778"  horiz-adv-x="1139" />

    
    <glyph glyph-name="xiaohongqi" unicode="&#59572;" d="M165.184 832A37.44 37.44 0 0 1 128 794.368v-828.032c0-20.8 16.64-37.632 37.184-37.632 20.544 0 37.248 16.832 37.248 37.632V794.368A37.504 37.504 0 0 1 165.12 832z m563.584-77.248c-66.624 0-126.4 16.256-167.232 38.656C520.704 815.872 460.928 832 394.304 832c-66.56 0-126.336-27.712-167.232-50.176v-424.64c40.832 22.464 100.608 50.176 167.232 50.176s126.4-16.256 167.232-38.592c40.832-22.528 100.608-38.656 167.232-38.656S855.104 359.872 896 382.208V807.04c-40.96-22.464-100.672-52.224-167.232-52.224z"  horiz-adv-x="1024" />

    
    <glyph glyph-name="beiwanglu" unicode="&#58888;" d="M773.888 73.92c0-1.6-0.768-2.56-0.128-2.624l-522.496-0.384c-0.256 0.192-1.152 1.216-1.152 3.008V507.648h523.712v-433.728zM250.176 650.496c0 1.6 0.576 2.56 0.064 2.688h116.224v-14.592a29.12 29.12 0 0 1 58.176 0v14.528h174.592v-14.528a29.12 29.12 0 1 1 58.24 0v14.528h115.392c0.64-0.768 1.024-1.664 1.024-2.624v-84.672H250.176V650.496z m523.456 60.8h-116.096v14.528a29.184 29.184 0 0 1-58.24 0v-14.528H424.704v14.528a29.12 29.12 0 0 1-58.176 0v-14.528H249.856c-31.936 0-57.856-27.328-57.856-60.8v-576.576c0-33.472 25.984-60.8 57.92-60.8h524.096c32 0 57.984 27.328 57.984 60.8V650.496c0 33.536-26.112 60.8-58.368 60.8z m0 0M434.048 371.456h232.704a29.12 29.12 0 0 1 0 58.24H434.048a29.12 29.12 0 0 1 0-58.24m0-145.472h232.704a29.12 29.12 0 0 1 0 58.176H434.048a29.12 29.12 0 0 1 0-58.176"  horiz-adv-x="1024" />

    
    <glyph glyph-name="down-trangle" unicode="&#58626;" d="M535.76686834 180.25358891999997l359.90494681 359.90494683c13.76003093 13.76003093 13.76003093 36.93263313 0 51.41535214-13.76003093 13.76003093-36.93263313 13.76003093-51.41535212 0l-334.55798527-334.55798527-333.10757301 333.107573c-13.76003093 13.76003093-36.93263313 13.76003093-51.41535212 0-13.76003093-13.76003093-13.76003093-36.93263313 0-51.41535212l358.45201649-358.45201649c15.20540705-14.48145996 37.65532119-14.48145996 52.14685344 0Z"  horiz-adv-x="1024" />

    
    <glyph glyph-name="down-trangle1" unicode="&#58627;" d="M535.17269663 185.34724919999996l350.90732314 350.90732316c13.41603016 13.41603016 13.41603016 36.0093173 0 50.12996833-13.41603016 13.41603016-36.0093173 13.41603016-50.12996832 0l-326.19403563-326.19403564-324.77988369 324.77988368c-13.41603016 13.41603016-36.0093173 13.41603016-50.12996832 0-13.41603016-13.41603016-13.41603016-36.0093173 0-50.12996832l349.49071608-349.49071608c14.82527187-14.11942346 36.71393816-14.11942346 50.84318211 0Z"  horiz-adv-x="1024" />

    


  </font>
</defs>
</svg>
